<svg width="18" height="15" viewBox="0 0 18 15" fill="none" xmlns="http://www.w3.org/2000/svg">
    <path fill-rule="evenodd" clip-rule="evenodd"
        d="M15.6087 14.2174H2.3913C1.62296 14.2174 1 13.5944 1 12.8261V2.39131C1 1.62296 1.62296 1 2.3913 1H15.6087C16.377 1 17 1.62296 17 2.39131V12.8261C17 13.5944 16.377 14.2174 15.6087 14.2174ZM16.3043 2.39131C16.3043 2.0073 15.9927 1.69565 15.6087 1.69565H2.3913C2.0073 1.69565 1.69565 2.0073 1.69565 2.39131V4.47826H16.3043V2.39131ZM16.3043 5.17392H1.69565V12.8261C1.69565 13.2101 2.0073 13.5217 2.3913 13.5217H15.6087C15.9927 13.5217 16.3043 13.2101 16.3043 12.8261V5.17392ZM14.913 10.0435H14.2174C14.0254 10.0435 13.8696 9.888 13.8696 9.69566V9C13.8696 8.808 14.0254 8.65218 14.2174 8.65218H14.913C15.1054 8.65218 15.2609 8.808 15.2609 9V9.69566C15.2609 9.888 15.1054 10.0435 14.913 10.0435ZM14.913 7.6087H14.2174C14.0254 7.6087 13.8696 7.45322 13.8696 7.26087V6.56522C13.8696 6.37287 14.0254 6.21739 14.2174 6.21739H14.913C15.1054 6.21739 15.2609 6.37287 15.2609 6.56522V7.26087C15.2609 7.45322 15.1054 7.6087 14.913 7.6087ZM12.1304 10.0435H11.4348C11.2428 10.0435 11.087 9.888 11.087 9.69566V9C11.087 8.808 11.2428 8.65218 11.4348 8.65218H12.1304C12.3228 8.65218 12.4783 8.808 12.4783 9V9.69566C12.4783 9.888 12.3228 10.0435 12.1304 10.0435ZM12.1304 7.6087H11.4348C11.2428 7.6087 11.087 7.45322 11.087 7.26087V6.56522C11.087 6.37287 11.2428 6.21739 11.4348 6.21739H12.1304C12.3228 6.21739 12.4783 6.37287 12.4783 6.56522V7.26087C12.4783 7.45322 12.3228 7.6087 12.1304 7.6087ZM9.34783 10.0435H8.65217C8.45983 10.0435 8.30435 9.888 8.30435 9.69566V9C8.30435 8.808 8.45983 8.65218 8.65217 8.65218H9.34783C9.54017 8.65218 9.69565 8.808 9.69565 9V9.69566C9.69565 9.888 9.54017 10.0435 9.34783 10.0435ZM9.34783 7.6087H8.65217C8.45983 7.6087 8.30435 7.45322 8.30435 7.26087V6.56522C8.30435 6.37287 8.45983 6.21739 8.65217 6.21739H9.34783C9.54017 6.21739 9.69565 6.37287 9.69565 6.56522V7.26087C9.69565 7.45322 9.54017 7.6087 9.34783 7.6087ZM6.56522 12.4783H5.86957C5.67722 12.4783 5.52174 12.3228 5.52174 12.1304V11.4348C5.52174 11.2424 5.67722 11.087 5.86957 11.087H6.56522C6.75757 11.087 6.91304 11.2424 6.91304 11.4348V12.1304C6.91304 12.3228 6.75757 12.4783 6.56522 12.4783ZM6.56522 10.0435H5.86957C5.67722 10.0435 5.52174 9.888 5.52174 9.69566V9C5.52174 8.808 5.67722 8.65218 5.86957 8.65218H6.56522C6.75757 8.65218 6.91304 8.808 6.91304 9V9.69566C6.91304 9.888 6.75757 10.0435 6.56522 10.0435ZM6.56522 7.6087H5.86957C5.67722 7.6087 5.52174 7.45322 5.52174 7.26087V6.56522C5.52174 6.37287 5.67722 6.21739 5.86957 6.21739H6.56522C6.75757 6.21739 6.91304 6.37287 6.91304 6.56522V7.26087C6.91304 7.45322 6.75757 7.6087 6.56522 7.6087ZM3.78261 12.4783H3.08696C2.89461 12.4783 2.73913 12.3228 2.73913 12.1304V11.4348C2.73913 11.2424 2.89461 11.087 3.08696 11.087H3.78261C3.97496 11.087 4.13043 11.2424 4.13043 11.4348V12.1304C4.13043 12.3228 3.97496 12.4783 3.78261 12.4783ZM3.78261 10.0435H3.08696C2.89461 10.0435 2.73913 9.888 2.73913 9.69566V9C2.73913 8.808 2.89461 8.65218 3.08696 8.65218H3.78261C3.97496 8.65218 4.13043 8.808 4.13043 9V9.69566C4.13043 9.888 3.97496 10.0435 3.78261 10.0435ZM8.65217 11.087H9.34783C9.54017 11.087 9.69565 11.2424 9.69565 11.4348V12.1304C9.69565 12.3228 9.54017 12.4783 9.34783 12.4783H8.65217C8.45983 12.4783 8.30435 12.3228 8.30435 12.1304V11.4348C8.30435 11.2424 8.45983 11.087 8.65217 11.087Z"
        fill="#1FC5DE" stroke="#1FC5DE" stroke-width="0.5" />
</svg>
    