<svg width="16" height="16" viewBox="0 0 16 16" fill="none" xmlns="http://www.w3.org/2000/svg">
    <path
        d="M14.2857 10.2857H12.5714V9.14286H14.2857C14.365 9.14339 14.4436 9.12741 14.5164 9.09593C14.5892 9.06445 14.6546 9.01816 14.7086 8.96C14.8137 8.84065 14.8671 8.68445 14.8571 8.52571L14.2857 1.71429C14.2857 1.25963 14.1051 0.823594 13.7836 0.502103C13.4621 0.180612 13.0261 1.08544e-07 12.5714 1.08544e-07H8C7.55315 -0.000158798 7.12391 0.174164 6.8037 0.485834C6.48349 0.797504 6.29763 1.22188 6.28571 1.66857L5.94857 5.71429H0.571429C0.419876 5.71429 0.274531 5.77449 0.167368 5.88165C0.0602039 5.98882 0 6.13416 0 6.28571C0 6.43727 0.0602039 6.58261 0.167368 6.68978C0.274531 6.79694 0.419876 6.85714 0.571429 6.85714H2.28571V12C2.28571 12.1516 2.34592 12.2969 2.45308 12.4041C2.56025 12.5112 2.70559 12.5714 2.85714 12.5714H4.67429C4.79218 12.9049 5.01033 13.1937 5.29882 13.3983C5.58731 13.6029 5.93203 13.7133 6.28571 13.7143H6.85714V15.4286C6.85714 15.5801 6.91735 15.7255 7.02451 15.8326C7.13167 15.9398 7.27702 16 7.42857 16C7.58012 16 7.72547 15.9398 7.83263 15.8326C7.9398 15.7255 8 15.5801 8 15.4286V13.7143H12.5714V15.4286C12.5714 15.5801 12.6316 15.7255 12.7388 15.8326C12.846 15.9398 12.9913 16 13.1429 16C13.2944 16 13.4398 15.9398 13.5469 15.8326C13.6541 15.7255 13.7143 15.5801 13.7143 15.4286V13.7143H14.2857C14.7404 13.7143 15.1764 13.5337 15.4979 13.2122C15.8194 12.8907 16 12.4547 16 12C16 11.5453 15.8194 11.1093 15.4979 10.7878C15.1764 10.4663 14.7404 10.2857 14.2857 10.2857ZM11.4286 10.2857H9.14286V9.14286H11.4286V10.2857ZM7.42857 1.71429C7.42857 1.56273 7.48878 1.41739 7.59594 1.31023C7.7031 1.20306 7.84845 1.14286 8 1.14286H12.5714C12.6505 1.1426 12.7287 1.15875 12.8012 1.19029C12.8737 1.22182 12.9388 1.26805 12.9926 1.32605C13.0463 1.38405 13.0873 1.45257 13.1132 1.52726C13.1391 1.60196 13.1492 1.68121 13.1429 1.76L13.6629 8H6.90857L7 6.85714H10.2857C10.4373 6.85714 10.5826 6.79694 10.6898 6.68978C10.7969 6.58261 10.8571 6.43727 10.8571 6.28571C10.8571 6.13416 10.7969 5.98882 10.6898 5.88165C10.5826 5.77449 10.4373 5.71429 10.2857 5.71429H7.09714L7.42857 1.71429ZM3.42857 6.85714H5.85714L5.71429 8.52571C5.70429 8.68445 5.75773 8.84065 5.86286 8.96C5.91679 9.01816 5.98224 9.06445 6.05504 9.09593C6.12784 9.12741 6.2064 9.14339 6.28571 9.14286H8V10.2857H6.28571C5.93203 10.2867 5.58731 10.3971 5.29882 10.6017C5.01033 10.8063 4.79218 11.0951 4.67429 11.4286H3.42857V6.85714ZM14.2857 12.5714H6.28571C6.13416 12.5714 5.98882 12.5112 5.88165 12.4041C5.77449 12.2969 5.71429 12.1516 5.71429 12C5.71429 11.8484 5.77449 11.7031 5.88165 11.5959C5.98882 11.4888 6.13416 11.4286 6.28571 11.4286H14.2857C14.4373 11.4286 14.5826 11.4888 14.6898 11.5959C14.7969 11.7031 14.8571 11.8484 14.8571 12C14.8571 12.1516 14.7969 12.2969 14.6898 12.4041C14.5826 12.5112 14.4373 12.5714 14.2857 12.5714Z"
        fill="#1FC5DE" />
</svg>
    