<svg width="15" height="18" viewBox="0 0 15 18" fill="none" xmlns="http://www.w3.org/2000/svg">
    <path fill-rule="evenodd" clip-rule="evenodd"
        d="M12.9566 5.5699C14.0457 6.784 14.7143 8.38324 14.7143 10.1429C14.7143 13.9299 11.6442 17 7.85714 17C4.0701 17 1 13.9299 1 10.1429C1 6.7459 3.47238 3.93371 6.71429 3.38857V1.7619H5.95238C5.74171 1.7619 5.57143 1.59124 5.57143 1.38095C5.57143 1.17067 5.74171 1 5.95238 1H9.76191C9.97257 1 10.1429 1.17067 10.1429 1.38095C10.1429 1.59124 9.97257 1.7619 9.76191 1.7619H9V3.38667C10.3055 3.608 11.4853 4.19581 12.4305 5.04381L13.3177 4.15657C13.4629 4.01143 13.6983 4.01143 13.8438 4.15657C13.989 4.30171 13.989 4.53752 13.8438 4.68267L12.9566 5.5699ZM8.2381 1.7619H7.47619V3.30514C7.60305 3.2979 7.72838 3.28571 7.85714 3.28571C7.98591 3.28571 8.11124 3.29676 8.2381 3.30362V1.7619ZM7.85714 4.04762C4.49105 4.04762 1.7619 6.77638 1.7619 10.1429C1.7619 13.5093 4.49105 16.2381 7.85714 16.2381C11.2236 16.2381 13.9524 13.5093 13.9524 10.1429C13.9524 6.77676 11.2236 4.04762 7.85714 4.04762ZM7.85714 11.6667C7.01562 11.6667 6.33333 10.9844 6.33333 10.1429C6.33333 9.85752 6.41676 9.59352 6.55352 9.36533L4.53714 7.34933C4.392 7.20419 4.392 6.96838 4.53714 6.82324C4.68267 6.67809 4.9181 6.67809 5.06324 6.82324L7.07962 8.83924C7.30819 8.70248 7.57181 8.61905 7.85714 8.61905C8.69867 8.61905 9.38095 9.30133 9.38095 10.1429C9.38095 10.9844 8.69867 11.6667 7.85714 11.6667ZM7.85714 9.38095C7.43657 9.38095 7.09524 9.72229 7.09524 10.1429C7.09524 10.5634 7.43657 10.9048 7.85714 10.9048C8.27772 10.9048 8.61905 10.5634 8.61905 10.1429C8.61905 9.72229 8.27772 9.38095 7.85714 9.38095Z"
        fill="#1FC5DE" stroke="#1FC5DE" stroke-width="0.5" />
</svg>
    