<svg width="18" height="16" viewBox="0 0 18 16" xmlns="http://www.w3.org/2000/svg">
    <path d="M12 11L9 8L6 11" fill="none" stroke-linecap="round" stroke-linejoin="round" />
    <path d="M9 8V14.75" fill="none" stroke-linecap="round" stroke-linejoin="round" />
    <path
        d="M15.2926 12.7907C16.0241 12.3919 16.602 11.7608 16.935 10.9971C17.268 10.2334 17.3373 9.38058 17.1317 8.57317C16.9262 7.76577 16.4577 7.04979 15.8001 6.53824C15.1425 6.02669 14.3332 5.74871 13.5001 5.74816H12.5551C12.3281 4.87009 11.905 4.05491 11.3176 3.3639C10.7301 2.6729 9.99373 2.12404 9.16367 1.75861C8.33361 1.39318 7.4315 1.22068 6.52518 1.25407C5.61885 1.28746 4.73189 1.52588 3.93097 1.95141C3.13006 2.37693 2.43603 2.97848 1.90106 3.71084C1.36609 4.4432 1.00411 5.28731 0.842327 6.1797C0.680545 7.0721 0.723171 7.98955 0.967002 8.8631C1.21083 9.73665 1.64952 10.5436 2.25009 11.2232"
        fill="none" stroke-linecap="round" stroke-linejoin="round" />
    <path d="M12 11L9 8L6 11" fill="none" stroke-linecap="round" stroke-linejoin="round" />
</svg>
    