<svg width="11" height="12" viewBox="0 0 11 12" xmlns="http://www.w3.org/2000/svg">
    <path
        d="M6.9233 11.9991H3.23012C2.61793 11.9991 2.03082 11.7559 1.59794 11.3231C1.16506 10.8902 0.921875 10.3031 0.921875 9.69088V4.1511C0.921875 4.02866 0.970513 3.91124 1.05709 3.82467C1.14366 3.73809 1.26109 3.68945 1.38352 3.68945C1.50596 3.68945 1.62338 3.73809 1.70996 3.82467C1.79653 3.91124 1.84517 4.02866 1.84517 4.1511V9.69088C1.84517 10.0582 1.99108 10.4105 2.25081 10.6702C2.51054 10.9299 2.86281 11.0758 3.23012 11.0758H6.9233C7.29061 11.0758 7.64288 10.9299 7.9026 10.6702C8.16233 10.4105 8.30825 10.0582 8.30825 9.69088V4.1511C8.30825 4.02866 8.35688 3.91124 8.44346 3.82467C8.53003 3.73809 8.64746 3.68945 8.76989 3.68945C8.89233 3.68945 9.00975 3.73809 9.09633 3.82467C9.1829 3.91124 9.23154 4.02866 9.23154 4.1511V9.69088C9.23154 10.3031 8.98835 10.8902 8.55547 11.3231C8.12259 11.7559 7.53548 11.9991 6.9233 11.9991Z"
        stroke="none" />
    <path
        d="M9.69461 2.77291H0.461648C0.339211 2.77291 0.22179 2.72427 0.135214 2.63769C0.0486379 2.55112 0 2.43369 0 2.31126C0 2.18882 0.0486379 2.0714 0.135214 1.98482C0.22179 1.89825 0.339211 1.84961 0.461648 1.84961H9.69461C9.81705 1.84961 9.93447 1.89825 10.021 1.98482C10.1076 2.0714 10.1563 2.18882 10.1563 2.31126C10.1563 2.43369 10.1076 2.55112 10.021 2.63769C9.93447 2.72427 9.81705 2.77291 9.69461 2.77291Z"
        stroke="none" />
    <path
        d="M6.92436 2.76989H3.23118C3.10874 2.76989 2.99132 2.72125 2.90474 2.63468C2.81817 2.5481 2.76953 2.43068 2.76953 2.30824V1.38494C2.76953 1.01763 2.91544 0.665368 3.17517 0.405641C3.4349 0.145913 3.78717 0 4.15448 0H6.00107C6.36838 0 6.72064 0.145913 6.98037 0.405641C7.2401 0.665368 7.38601 1.01763 7.38601 1.38494V2.30824C7.38601 2.43068 7.33738 2.5481 7.2508 2.63468C7.16422 2.72125 7.0468 2.76989 6.92436 2.76989ZM3.69283 1.84659H6.46272V1.38494C6.46272 1.26251 6.41408 1.14509 6.3275 1.05851C6.24093 0.971934 6.12351 0.923296 6.00107 0.923296H4.15448C4.03204 0.923296 3.91462 0.971934 3.82804 1.05851C3.74147 1.14509 3.69283 1.26251 3.69283 1.38494V1.84659Z"
        stroke="none" />
    <path
        d="M4.15305 9.23589C4.03062 9.23589 3.9132 9.18725 3.82662 9.10068C3.74004 9.0141 3.69141 8.89668 3.69141 8.77424V5.5427C3.69141 5.42027 3.74004 5.30284 3.82662 5.21627C3.9132 5.12969 4.03062 5.08105 4.15305 5.08105C4.27549 5.08105 4.39291 5.12969 4.47949 5.21627C4.56606 5.30284 4.6147 5.42027 4.6147 5.5427V8.77424C4.6147 8.89668 4.56606 9.0141 4.47949 9.10068C4.39291 9.18725 4.27549 9.23589 4.15305 9.23589Z"
        stroke="none" />
    <path
        d="M6.00071 9.23589C5.87827 9.23589 5.76085 9.18725 5.67428 9.10068C5.5877 9.0141 5.53906 8.89668 5.53906 8.77424V5.5427C5.53906 5.42027 5.5877 5.30284 5.67428 5.21627C5.76085 5.12969 5.87827 5.08105 6.00071 5.08105C6.12315 5.08105 6.24057 5.12969 6.32715 5.21627C6.41372 5.30284 6.46236 5.42027 6.46236 5.5427V8.77424C6.46236 8.89668 6.41372 9.0141 6.32715 9.10068C6.24057 9.18725 6.12315 9.23589 6.00071 9.23589Z"
        stroke="none" />
</svg>
    