<svg width="14" height="18" viewBox="0 0 14 18" xmlns="http://www.w3.org/2000/svg">
    <path
        d="M13.6953 4.1797L10.5703 1.0547C10.4512 0.938621 10.2913 0.874073 10.125 0.87501H3.875C3.54348 0.87501 3.22554 1.00671 2.99112 1.24113C2.7567 1.47555 2.625 1.79349 2.625 2.12501V3.37501H1.375C1.04348 3.37501 0.725537 3.50671 0.491116 3.74113C0.256696 3.97555 0.125 4.29349 0.125 4.62501V15.875C0.125 16.2065 0.256696 16.5245 0.491116 16.7589C0.725537 16.9933 1.04348 17.125 1.375 17.125H10.125C10.4565 17.125 10.7745 16.9933 11.0089 16.7589C11.2433 16.5245 11.375 16.2065 11.375 15.875V14.625H12.625C12.9565 14.625 13.2745 14.4933 13.5089 14.2589C13.7433 14.0245 13.875 13.7065 13.875 13.375V4.62501C13.8759 4.45873 13.8114 4.29876 13.6953 4.1797ZM7.625 14H3.875C3.70924 14 3.55027 13.9342 3.43306 13.817C3.31585 13.6997 3.25 13.5408 3.25 13.375C3.25 13.2093 3.31585 13.0503 3.43306 12.9331C3.55027 12.8159 3.70924 12.75 3.875 12.75H7.625C7.79076 12.75 7.94973 12.8159 8.06694 12.9331C8.18415 13.0503 8.25 13.2093 8.25 13.375C8.25 13.5408 8.18415 13.6997 8.06694 13.817C7.94973 13.9342 7.79076 14 7.625 14ZM7.625 11.5H3.875C3.70924 11.5 3.55027 11.4342 3.43306 11.317C3.31585 11.1997 3.25 11.0408 3.25 10.875C3.25 10.7093 3.31585 10.5503 3.43306 10.4331C3.55027 10.3159 3.70924 10.25 3.875 10.25H7.625C7.79076 10.25 7.94973 10.3159 8.06694 10.4331C8.18415 10.5503 8.25 10.7093 8.25 10.875C8.25 11.0408 8.18415 11.1997 8.06694 11.317C7.94973 11.4342 7.79076 11.5 7.625 11.5ZM12.625 13.375H11.375V7.12501C11.3759 6.95873 11.3114 6.79876 11.1953 6.6797L8.07031 3.5547C7.95125 3.43862 7.79128 3.37407 7.625 3.37501H3.875V2.12501H9.86719L12.625 4.88282V13.375Z"
        stroke="none" />
</svg>
    