<svg width="16" height="16" viewBox="0 0 16 16" fill="none" xmlns="http://www.w3.org/2000/svg">
    <g clip-path="url(#clip0_13081_11068)">
        <path
            d="M16 8C16.0006 9.57826 15.5342 11.1214 14.6595 12.4351C13.7848 13.7488 12.5409 14.7743 11.0845 15.3825C9.62813 15.9906 8.02435 16.1542 6.47516 15.8527C4.92597 15.5512 3.50064 14.798 2.37867 13.688C0.900205 12.2295 0.0477416 10.2527 0.00194501 8.17638C-0.0438516 6.10011 0.720618 4.08758 2.13334 2.56533C2.45771 2.21069 2.81485 1.88747 3.20001 1.6C4.58477 0.561423 6.26904 0 8.00001 0C9.73097 0 11.4152 0.561423 12.8 1.6C13.1852 1.88747 13.5423 2.21069 13.8667 2.56533C15.2408 4.0411 16.0033 5.98356 16 8Z"
            fill="#1FC5DE" />
        <path
            d="M15.1998 5.59961L13.6211 13.6876C12.1251 15.1688 10.105 15.9996 7.9998 15.9996C5.89461 15.9996 3.87448 15.1688 2.37847 13.6876L0.799805 5.59961L2.13314 4.41561V1.59961H13.8665V4.41561L15.1998 5.59961Z"
            fill="#73E3FC" />
        <path d="M13.8671 1.59961H2.13379V5.59961H13.8671V1.59961Z" fill="#6BCEE5" />
        <path d="M2.13379 1.59961V5.33294L3.20046 3.46628L2.13379 1.59961Z" fill="#4EAABE" />
        <path d="M13.8665 1.59961V5.33294L12.7998 3.46628L13.8665 1.59961Z" fill="#4EAABE" />
        <path d="M3.1998 3.4668V5.60013H0.799805L3.1998 3.4668Z" fill="#A1EDFE" />
        <path d="M12.7998 3.4668V5.60013H15.1998L12.7998 3.4668Z" fill="#A1EDFE" />
        <path
            d="M3.73353 8.26589C4.02808 8.26589 4.26686 8.0271 4.26686 7.73255C4.26686 7.438 4.02808 7.19922 3.73353 7.19922C3.43898 7.19922 3.2002 7.438 3.2002 7.73255C3.2002 8.0271 3.43898 8.26589 3.73353 8.26589Z"
            fill="black" />
        <path
            d="M12.5333 8.26589C12.8279 8.26589 13.0667 8.0271 13.0667 7.73255C13.0667 7.438 12.8279 7.19922 12.5333 7.19922C12.2388 7.19922 12 7.438 12 7.73255C12 8.0271 12.2388 8.26589 12.5333 8.26589Z"
            fill="black" />
        <path
            d="M12.5334 8.26758V8.56566C12.5334 11.1993 10.6231 13.3342 8.26673 13.3342H8.00006C5.64365 13.3342 3.7334 11.1993 3.7334 8.56566V8.26758"
            stroke="#6BCEE5" stroke-width="1.58578" stroke-miterlimit="10" stroke-linecap="round" />
        <path
            d="M12.5334 7.73242V7.99912C12.5334 9.13071 12.0839 10.216 11.2837 11.0161C10.4836 11.8163 9.39832 12.2658 8.26673 12.2658H8.00006C6.86847 12.2658 5.78323 11.8163 4.98308 11.0161C4.18292 10.216 3.7334 9.13071 3.7334 7.99912V7.73242"
            stroke="#1FC5DE" stroke-width="1.5" stroke-miterlimit="10" stroke-linecap="round" />
    </g>
    <defs>
        <clipPath id="clip0_13081_11068">
            <rect width="16" height="16" fill="white" />
        </clipPath>
    </defs>
</svg>