<svg width="14" height="16" viewBox="0 0 14 16" xmlns="http://www.w3.org/2000/svg">
    <path
        d="M7 15.3125C6.40326 15.3125 5.83097 15.0754 5.40901 14.6535C4.98705 14.2315 4.75 13.6592 4.75 13.0625C4.75 12.9133 4.80926 12.7702 4.91475 12.6648C5.02024 12.5593 5.16332 12.5 5.3125 12.5H8.6875C8.83668 12.5 8.97976 12.5593 9.08525 12.6648C9.19074 12.7702 9.25 12.9133 9.25 13.0625C9.25 13.6592 9.01295 14.2315 8.59099 14.6535C8.16903 15.0754 7.59674 15.3125 7 15.3125ZM6.02688 13.625C6.12577 13.7955 6.26771 13.937 6.4385 14.0354C6.60928 14.1337 6.80291 14.1855 7 14.1855C7.19709 14.1855 7.39072 14.1337 7.5615 14.0354C7.73229 13.937 7.87423 13.7955 7.97312 13.625H6.02688Z"
        stroke="none" />
    <path
        d="M8.125 2.9375H5.875C5.72582 2.9375 5.58274 2.87824 5.47725 2.77275C5.37176 2.66726 5.3125 2.52418 5.3125 2.375C5.3125 1.92745 5.49029 1.49822 5.80676 1.18176C6.12322 0.86529 6.55245 0.6875 7 0.6875C7.44755 0.6875 7.87678 0.86529 8.19324 1.18176C8.50971 1.49822 8.6875 1.92745 8.6875 2.375C8.6875 2.52418 8.62824 2.66726 8.52275 2.77275C8.41726 2.87824 8.27418 2.9375 8.125 2.9375Z"
        stroke="none" />
    <path
        d="M13.1875 13.625H0.812501C0.663317 13.625 0.520243 13.5657 0.414754 13.4602C0.309265 13.3548 0.250001 13.2117 0.250001 13.0625C0.249508 12.4272 0.402724 11.8013 0.696572 11.2381C0.99042 10.6749 1.41618 10.1911 1.9375 9.82812V6.875C1.93747 5.53817 2.46621 4.25559 3.40832 3.30715C4.35044 2.35871 5.62945 1.82141 6.96625 1.8125H7.02813C8.37078 1.8125 9.65845 2.34587 10.6079 3.29527C11.5573 4.24467 12.0906 5.53234 12.0906 6.875V9.82812C12.6068 10.1942 13.0271 10.6793 13.3159 11.2424C13.6048 11.8054 13.7537 12.4297 13.75 13.0625C13.75 13.2117 13.6907 13.3548 13.5852 13.4602C13.4798 13.5657 13.3367 13.625 13.1875 13.625ZM1.43125 12.5H12.5688C12.4891 12.11 12.3275 11.7414 12.0948 11.4185C11.8621 11.0956 11.5635 10.8258 11.2188 10.6269C11.1329 10.5773 11.0617 10.506 11.0123 10.42C10.9629 10.3341 10.9371 10.2366 10.9375 10.1375V6.875C10.9375 5.83071 10.5227 4.82919 9.78423 4.09077C9.04581 3.35234 8.04429 2.9375 7 2.9375C5.95571 2.9375 4.95419 3.35234 4.21577 4.09077C3.47734 4.82919 3.0625 5.83071 3.0625 6.875V10.1375C3.06289 10.2366 3.03709 10.3341 2.9877 10.42C2.93831 10.506 2.86709 10.5773 2.78125 10.6269C2.4365 10.8258 2.13789 11.0956 1.90517 11.4185C1.67245 11.7414 1.51092 12.11 1.43125 12.5Z"
        stroke="none" />
</svg>