<svg width="22" height="22" viewBox="0 0 22 22" xmlns="http://www.w3.org/2000/svg">
    <path
        d="M20.5803 7.95052C20.1448 7.51501 19.9271 6.97062 19.9271 6.42623C19.9271 4.03092 17.9673 2.07113 15.5719 2.07113C15.0276 2.07113 14.4832 1.85337 14.0477 1.41786C12.3056 -0.324182 9.58368 -0.324182 7.84164 1.41786C7.51501 1.85337 6.97062 2.07113 6.42623 2.07113C4.03092 2.07113 2.07113 4.03092 2.07113 6.42623C2.07113 6.97062 1.85337 7.51501 1.41786 7.95052C-0.324182 9.69256 -0.324182 12.4145 1.41786 14.1565C1.85337 14.592 2.07113 15.1364 2.07113 15.6808C2.07113 18.0761 4.03092 20.0359 6.42623 20.0359C6.97062 20.0359 7.51501 20.2537 7.95052 20.6892C8.82154 21.4513 9.91031 21.8869 10.9991 21.8869C12.0879 21.8869 13.2855 21.4513 14.0477 20.5803C14.4832 20.1448 15.0276 19.9271 15.5719 19.9271C17.9673 19.9271 19.9271 17.9673 19.9271 15.5719C19.9271 15.0276 20.1448 14.4832 20.4714 14.0477C22.3224 12.4145 22.3224 9.58368 20.5803 7.95052ZM19.056 12.5234C18.185 13.3944 17.7495 14.4832 17.7495 15.5719C17.7495 16.7696 16.7696 17.7495 15.5719 17.7495C14.3743 17.7495 13.2855 18.185 12.5234 19.056C11.6524 19.9271 10.3458 19.9271 9.4748 19.056C8.60378 18.185 7.51501 17.7495 6.42623 17.7495C5.22858 17.7495 4.24868 16.7696 4.24868 15.5719C4.24868 14.3743 3.81317 13.2855 2.94215 12.5234C2.07113 11.6524 2.07113 10.3458 2.94215 9.4748C3.81317 8.60378 4.24868 7.51501 4.24868 6.42623C4.24868 5.22858 5.22858 4.24868 6.42623 4.24868C7.62388 4.24868 8.71266 3.81317 9.4748 2.94215C9.91031 2.50664 10.4547 2.28888 10.9991 2.28888C11.5435 2.28888 12.0879 2.50664 12.5234 2.94215C13.3944 3.81317 14.4832 4.24868 15.5719 4.24868C16.7696 4.24868 17.7495 5.22858 17.7495 6.42623C17.7495 7.62388 18.185 8.71266 19.056 9.4748C19.9271 10.3458 19.9271 11.6524 19.056 12.5234Z"
        stroke="none" />
    <path
        d="M13.1767 14.2635C13.778 14.2635 14.2654 13.776 14.2654 13.1747C14.2654 12.5734 13.778 12.0859 13.1767 12.0859C12.5754 12.0859 12.0879 12.5734 12.0879 13.1747C12.0879 13.776 12.5754 14.2635 13.1767 14.2635Z"
        stroke="none" />
    <path
        d="M8.8212 9.90997C9.42251 9.90997 9.90997 9.42251 9.90997 8.8212C9.90997 8.21988 9.42251 7.73242 8.8212 7.73242C8.21988 7.73242 7.73242 8.21988 7.73242 8.8212C7.73242 9.42251 8.21988 9.90997 8.8212 9.90997Z"
        stroke="none" />
    <path
        d="M12.4142 8.05905L8.05905 12.4142C7.62354 12.8497 7.62354 13.5029 8.05905 13.9384C8.27681 14.1562 8.49456 14.2651 8.8212 14.2651C9.14783 14.2651 9.36559 14.1562 9.58334 13.9384L13.9384 9.58334C14.374 9.14783 14.374 8.49457 13.9384 8.05905C13.5029 7.62354 12.8497 7.62354 12.4142 8.05905Z"
        stroke="none" />
</svg>