<svg width="82" height="82" viewBox="0 0 82 82" fill="none" xmlns="http://www.w3.org/2000/svg">
    <g opacity="0.3">
        <path
            d="M0 41C0 18.3563 18.3563 0 41 0C63.6437 0 82 18.3563 82 41C82 63.6437 63.6437 82 41 82C18.3563 82 0 63.6437 0 41Z"
            fill="#1FC5DE" />
        <mask id="mask0_9429_487331" style="mask-type:alpha" maskUnits="userSpaceOnUse" x="0" y="0"
            width="82" height="82">
            <rect width="82" height="82" rx="41" fill="#FFC82C" />
        </mask>
        <g mask="url(#mask0_9429_487331)">
            <path
                d="M48.6891 61.4991V56.3739C49.8423 55.8025 53.1403 51.8766 53.4863 48.8091C54.3935 48.7399 55.8183 47.9071 56.2385 44.6193C56.464 42.8536 55.5671 41.8619 55.0239 41.5493C55.0239 41.5493 56.3769 38.979 56.3769 35.8756C56.3769 29.6536 53.9348 24.3439 48.6891 24.3439C48.6891 24.3439 46.8671 20.5 41.0013 20.5C30.1307 20.5 25.6256 27.4729 25.6256 35.8756C25.6256 38.7048 26.9787 41.5493 26.9787 41.5493C26.4354 41.8619 25.5385 42.8562 25.764 44.6193C26.1843 47.9071 27.6091 48.7399 28.5163 48.8091C28.8622 51.8766 32.1603 55.8025 33.3135 56.3739V61.4991C30.7509 69.187 10.25 64.0618 10.25 82H71.7526C71.7526 64.0618 51.2517 69.187 48.6891 61.4991Z"
                fill="white" />
        </g>
    </g>
</svg>
    