<svg width="20" height="22" viewBox="0 0 20 22"  xmlns="http://www.w3.org/2000/svg">
    <path
        d="M10 2.99981C11.8129 3.00407 13.5705 3.62392 14.985 4.75781H13.242C12.9768 4.75781 12.7224 4.86317 12.5349 5.05071C12.3474 5.23824 12.242 5.4926 12.242 5.75781C12.242 6.02303 12.3474 6.27738 12.5349 6.46492C12.7224 6.65246 12.9768 6.75781 13.242 6.75781H17.242C17.5072 6.75781 17.7616 6.65246 17.9491 6.46492C18.1367 6.27738 18.242 6.02303 18.242 5.75781V1.75781C18.242 1.4926 18.1367 1.23824 17.9491 1.05071C17.7616 0.863169 17.5072 0.757813 17.242 0.757812C16.9768 0.757813 16.7224 0.863169 16.5349 1.05071C16.3474 1.23824 16.242 1.4926 16.242 1.75781V3.20581C14.774 2.02438 13.0016 1.28255 11.1297 1.0661C9.25783 0.849653 7.3629 1.16742 5.66402 1.98265C3.96514 2.79789 2.53168 4.07731 1.52937 5.67299C0.527064 7.26868 -0.00315467 9.11545 1.41207e-05 10.9998C1.41207e-05 11.265 0.105371 11.5194 0.292907 11.7069C0.480444 11.8945 0.734798 11.9998 1.00001 11.9998C1.26523 11.9998 1.51958 11.8945 1.70712 11.7069C1.89466 11.5194 2.00001 11.265 2.00001 10.9998C2.0024 8.87881 2.84602 6.84536 4.34579 5.34559C5.84557 3.84581 7.87901 3.00219 10 2.99981Z"
        stroke="none" />
    <path
        d="M18.9998 10C18.7346 10 18.4803 10.1054 18.2927 10.2929C18.1052 10.4804 17.9998 10.7348 17.9998 11C18.0025 12.5066 17.5789 13.9832 16.7781 15.2593C15.9772 16.5355 14.8316 17.559 13.4738 18.2117C12.1159 18.8645 10.6011 19.1198 9.1043 18.9482C7.60749 18.7766 6.18976 18.1851 5.01484 17.242H6.75684C7.02205 17.242 7.27641 17.1366 7.46394 16.9491C7.65148 16.7616 7.75684 16.5072 7.75684 16.242C7.75684 15.9768 7.65148 15.7224 7.46394 15.5349C7.27641 15.3474 7.02205 15.242 6.75684 15.242H2.75684C2.49162 15.242 2.23727 15.3474 2.04973 15.5349C1.86219 15.7224 1.75684 15.9768 1.75684 16.242V20.242C1.75684 20.5072 1.86219 20.7616 2.04973 20.9491C2.23727 21.1366 2.49162 21.242 2.75684 21.242C3.02205 21.242 3.27641 21.1366 3.46394 20.9491C3.65148 20.7616 3.75684 20.5072 3.75684 20.242V18.794C5.22494 19.9753 6.99739 20.717 8.8693 20.9334C10.7412 21.1498 12.6361 20.8321 14.335 20.0169C16.034 19.2017 17.4675 17.9223 18.4699 16.3267C19.4724 14.7311 20.0028 12.8844 19.9998 11C19.9998 10.7348 19.8945 10.4804 19.7069 10.2929C19.5194 10.1054 19.2651 10 18.9998 10Z"
        stroke="none" />
</svg>