<svg width="48" height="42" viewBox="0 0 48 42" fill="none" xmlns="http://www.w3.org/2000/svg">
    <path
        d="M42.667 9.33333V4.66667C42.667 2.093 40.574 0 38.0003 0H7.66699C3.80766 0 0.666992 3.14067 0.666992 7V35C0.666992 40.1357 4.85299 42 7.66699 42H42.667C45.2407 42 47.3337 39.907 47.3337 37.3333V14C47.3337 11.4263 45.2407 9.33333 42.667 9.33333ZM38.0003 30.3333H33.3337V21H38.0003V30.3333ZM7.66699 9.33333C7.06621 9.30646 6.49894 9.04888 6.0833 8.61424C5.66767 8.1796 5.4357 7.60139 5.4357 7C5.4357 6.39861 5.66767 5.8204 6.0833 5.38576C6.49894 4.95112 7.06621 4.69354 7.66699 4.66667H38.0003V9.33333H7.66699Z"
        fill="#1FC5DE" />
</svg>
    