<svg width="16" height="14" viewBox="0 0 16 14" xmlns="http://www.w3.org/2000/svg">
    <path
        d="M8 13.1875C8 13.1875 0.96875 9.25001 0.96875 4.46876C0.96875 3.62352 1.2616 2.80439 1.79747 2.15073C2.33334 1.49708 3.07913 1.04927 3.90795 0.883508C4.73677 0.717743 5.59743 0.844259 6.34348 1.24153C7.08954 1.6388 7.67491 2.28229 8 3.06251C8.32509 2.28229 8.91046 1.6388 9.65652 1.24153C10.4026 0.844259 11.2632 0.717743 12.092 0.883508C12.9209 1.04927 13.6667 1.49708 14.2025 2.15073C14.7384 2.80439 15.0313 3.62352 15.0312 4.46876C15.0313 9.25001 8 13.1875 8 13.1875Z"
        fill="none" stroke-width="1.5" stroke-linecap="round" stroke-linejoin="round" />
</svg>