<svg width="30" height="20" viewBox="0 0 30 20" fill="none" xmlns="http://www.w3.org/2000/svg">
<path d="M27.7528 19.6545H2.24718C1.95212 19.6547 1.65992 19.5966 1.38729 19.4838C1.11465 19.371 0.86692 19.2055 0.658239 18.9969C0.449557 18.7884 0.284017 18.5407 0.171074 18.2681C0.0581316 17.9955 -2.46384e-08 17.7033 0 17.4083L0 2.24718C0 1.65119 0.236755 1.07961 0.658183 0.658183C1.07961 0.236756 1.65119 0 2.24718 0H27.7528C28.3488 0 28.9204 0.236756 29.3418 0.658183C29.7632 1.07961 30 1.65119 30 2.24718V17.4083C30 17.7033 29.9419 17.9955 29.8289 18.2681C29.716 18.5407 29.5504 18.7884 29.3418 18.9969C29.1331 19.2055 28.8853 19.371 28.6127 19.4838C28.3401 19.5966 28.0479 19.6547 27.7528 19.6545Z" fill="#73AF00"/>
<path d="M6.20711 6.67988C6.25852 7.00667 6.45588 7.10948 6.62754 7.09571C6.72777 7.08579 6.82116 7.04039 6.89085 6.96767C6.96054 6.89495 7.00194 6.79971 7.00758 6.69915V5.57831C7.00758 5.55129 7.01832 5.52538 7.03743 5.50627C7.05653 5.48716 7.08245 5.47642 7.10947 5.47642C7.13649 5.47642 7.16241 5.48716 7.18152 5.50627C7.20063 5.52538 7.21137 5.55129 7.21137 5.57831V6.70466C7.2114 6.77126 7.22775 6.83684 7.25899 6.89566C7.29023 6.95448 7.3354 7.00474 7.39056 7.04206C7.44573 7.07938 7.50919 7.1026 7.57541 7.10971C7.64163 7.11683 7.70858 7.10761 7.77041 7.08286L7.8723 7.04247C7.88148 7.98338 7.82457 8.81139 7.82365 8.82608C7.82177 8.85278 7.82518 8.87959 7.83367 8.90498C7.84216 8.93037 7.85557 8.95383 7.87313 8.97403C7.89069 8.99424 7.91206 9.01078 7.93602 9.02272C7.95997 9.03467 7.98605 9.04177 8.01275 9.04364H8.02744C8.07887 9.04354 8.12837 9.02398 8.166 8.98891C8.20363 8.95384 8.2266 8.90583 8.23031 8.85453C8.2349 8.78843 8.29824 7.88241 8.27896 6.87907L8.34046 6.85429C8.36726 6.84369 8.39599 6.83885 8.42478 6.84012C8.45357 6.84139 8.48177 6.84872 8.50753 6.86163C8.61683 6.91627 8.74054 6.93511 8.86115 6.91551C8.98175 6.8959 9.09313 6.83883 9.17949 6.75239L9.2162 6.71568C9.29685 6.63555 9.35345 6.53443 9.37957 6.42377C9.40569 6.31312 9.40029 6.19736 9.36399 6.08962L9.1905 5.56914C9.23957 5.5849 9.2928 5.58148 9.33946 5.55957C9.38612 5.53766 9.42274 5.49888 9.44194 5.45104C9.46115 5.40321 9.46151 5.34986 9.44296 5.30177C9.4244 5.25368 9.38832 5.2144 9.34196 5.19186L8.93438 4.98807C8.89831 4.96998 8.85768 4.96301 8.81764 4.96804C8.7776 4.97307 8.73996 4.98987 8.70948 5.01632C8.679 5.04277 8.65706 5.07767 8.64644 5.1166C8.63582 5.15553 8.63699 5.19674 8.64982 5.235L8.97753 6.21906C8.98953 6.25496 8.99125 6.2935 8.98249 6.33032C8.97373 6.36714 8.95484 6.40078 8.92796 6.42743L8.89124 6.46416C8.86528 6.49012 8.83182 6.50727 8.79559 6.5132C8.75935 6.51912 8.72217 6.51353 8.68929 6.4972C8.55761 6.43255 8.40703 6.41755 8.26519 6.45497C8.25649 5.86111 8.17259 5.27075 8.0155 4.69798C7.998 4.64716 7.96114 4.60532 7.91293 4.58156C7.86472 4.55779 7.80907 4.55402 7.7581 4.57109C7.70713 4.58816 7.66497 4.62468 7.6408 4.67269C7.61663 4.72069 7.6124 4.77631 7.62904 4.82742C7.78303 5.40825 7.8617 6.00646 7.86312 6.60735L7.61894 6.70466V5.57831C7.61894 5.44307 7.56521 5.31337 7.46958 5.21774C7.37395 5.12211 7.24426 5.06838 7.10902 5.06838C6.97377 5.06838 6.84407 5.12211 6.74844 5.21774C6.65281 5.31337 6.59908 5.44307 6.59908 5.57831V6.56513L6.39071 5.53793C6.38608 5.51106 6.37611 5.4854 6.36139 5.46246C6.34667 5.43951 6.32749 5.41974 6.305 5.40434C6.2825 5.38894 6.25715 5.37823 6.23043 5.3728C6.20372 5.36737 6.17618 5.36735 6.14946 5.37276C6.12274 5.37816 6.09738 5.38888 6.07488 5.40426C6.05237 5.41964 6.03318 5.43939 6.01844 5.46232C6.0037 5.48525 5.99371 5.51091 5.98906 5.53777C5.98442 5.56464 5.98521 5.59216 5.99139 5.61871L6.20711 6.67988Z" fill="#F5F5F5"/>
<path d="M6.60003 4.96586C6.62679 4.96586 6.65329 4.96059 6.67801 4.95035C6.70274 4.94011 6.7252 4.9251 6.74413 4.90617C6.76305 4.88725 6.77806 4.86478 6.7883 4.84006C6.79855 4.81534 6.80381 4.78883 6.80381 4.76207V4.55828C6.80381 4.50423 6.78234 4.45241 6.74413 4.41419C6.70591 4.37597 6.65408 4.35449 6.60003 4.35449C6.54598 4.35449 6.49414 4.37597 6.45592 4.41419C6.41771 4.45241 6.39624 4.50423 6.39624 4.55828V4.76207C6.39624 4.78883 6.4015 4.81534 6.41175 4.84006C6.42199 4.86478 6.437 4.88725 6.45592 4.90617C6.47485 4.9251 6.49731 4.94011 6.52204 4.95035C6.54676 4.96059 6.57327 4.96586 6.60003 4.96586Z" fill="#F5F5F5"/>
<path d="M8.63885 4.76207H8.84264C8.89668 4.76207 8.94852 4.7406 8.98674 4.70238C9.02496 4.66417 9.04642 4.61233 9.04642 4.55828C9.04642 4.50423 9.02496 4.45241 8.98674 4.41419C8.94852 4.37597 8.89668 4.35449 8.84264 4.35449H8.63885C8.5848 4.35449 8.53296 4.37597 8.49474 4.41419C8.45652 4.45241 8.43506 4.50423 8.43506 4.55828C8.43506 4.61233 8.45652 4.66417 8.49474 4.70238C8.53296 4.7406 8.5848 4.76207 8.63885 4.76207Z" fill="#F5F5F5"/>
<path d="M7.31238 7.44126L6.29252 8.05263C6.26956 8.06643 6.24954 8.08462 6.2336 8.10616C6.21767 8.1277 6.20614 8.15217 6.19966 8.17817C6.19318 8.20417 6.19188 8.23119 6.19585 8.25769C6.19981 8.28419 6.20895 8.30965 6.22276 8.33261C6.23656 8.35558 6.25475 8.37559 6.27629 8.39153C6.29783 8.40746 6.3223 8.419 6.3483 8.42548C6.3743 8.43196 6.40132 8.43325 6.42782 8.42929C6.45432 8.42533 6.47977 8.41617 6.50274 8.40237L7.52259 7.791C7.54556 7.7772 7.56558 7.75901 7.58151 7.73747C7.59745 7.71593 7.60899 7.69147 7.61547 7.66547C7.62195 7.63947 7.62323 7.61245 7.61927 7.58595C7.61531 7.55946 7.60617 7.534 7.59236 7.51103C7.57856 7.48807 7.56037 7.46804 7.53883 7.4521C7.51729 7.43617 7.49282 7.42464 7.46682 7.41816C7.44082 7.41169 7.41381 7.41039 7.38731 7.41435C7.36081 7.41832 7.33535 7.42746 7.31238 7.44126Z" fill="#F5F5F5"/>
<path d="M10.059 7.80196H10.0636C10.079 7.87214 10.1104 7.9378 10.1554 7.99381C10.198 8.04274 10.2518 8.08058 10.3123 8.10409C10.3727 8.1276 10.438 8.13606 10.5024 8.12876C10.5851 8.12508 10.6661 8.10318 10.7394 8.06462C10.8127 8.02606 10.8766 7.97178 10.9265 7.90568C10.9403 7.91522 10.9547 7.92381 10.9696 7.93138C11.026 7.95859 11.0881 7.97173 11.1506 7.96965C11.2131 7.96757 11.2742 7.95034 11.3286 7.91945C11.4498 7.8451 11.5483 7.73877 11.613 7.61214C11.6778 7.4855 11.7064 7.34345 11.6958 7.2016C11.6918 7.14845 11.6676 7.09883 11.6281 7.06298C11.5887 7.02712 11.537 7.00775 11.4837 7.00884C11.4297 7.01122 11.3789 7.03485 11.3422 7.07457C11.3056 7.1143 11.2862 7.1669 11.2882 7.22089C11.2882 7.22089 11.2928 7.46507 11.145 7.55503C11.1134 7.50223 11.0919 7.44401 11.0816 7.38336C11.0732 7.33285 11.0462 7.28736 11.0058 7.25592C10.9653 7.22448 10.9146 7.2094 10.8636 7.21368C10.8125 7.21796 10.765 7.24129 10.7304 7.27902C10.6958 7.31676 10.6767 7.36613 10.6768 7.41733C10.6768 7.4467 10.6704 7.70832 10.4684 7.73035C10.4441 7.64298 10.4441 7.5506 10.4684 7.46323C10.4779 7.4235 10.4753 7.38183 10.4608 7.34363C10.4463 7.30544 10.4207 7.27248 10.3872 7.24903C10.3538 7.22558 10.314 7.21271 10.2732 7.21211C10.2324 7.21151 10.1923 7.22321 10.1582 7.24567L10.0443 7.32278C9.99017 6.14044 9.86625 4.76258 9.86074 4.74513C9.85908 4.71792 9.85199 4.6913 9.83986 4.66688C9.82774 4.64245 9.81083 4.62071 9.79015 4.60294C9.76947 4.58516 9.74543 4.57172 9.71946 4.56341C9.69349 4.55509 9.66612 4.55208 9.63896 4.55454C9.6118 4.557 9.58542 4.56488 9.56136 4.57772C9.5373 4.59056 9.51607 4.6081 9.49892 4.6293C9.48176 4.65049 9.46903 4.67492 9.46149 4.70112C9.45395 4.72733 9.45174 4.75477 9.455 4.78185C9.455 4.80112 9.60095 6.39472 9.64502 7.61194L9.61381 7.64224C9.58075 7.54725 9.52115 7.46373 9.44208 7.40158C9.36301 7.33943 9.26778 7.30125 9.16768 7.29157C9.01596 7.28506 8.86588 7.3251 8.73757 7.40632C8.60926 7.48754 8.50885 7.60605 8.44982 7.74596C8.399 7.8492 8.3868 7.96722 8.41542 8.07868C8.44405 8.19014 8.51161 8.28767 8.60588 8.35365C8.69807 8.40516 8.80099 8.43447 8.90647 8.43925C9.01196 8.44403 9.11711 8.42415 9.21357 8.38119C9.1485 8.61174 9.03558 8.82599 8.88219 9.00999C8.80487 9.11012 8.70632 9.19187 8.59362 9.24933C8.48092 9.30679 8.35688 9.33854 8.23043 9.3423C8.1564 9.34299 8.08302 9.32834 8.01493 9.29927C7.94683 9.2702 7.8855 9.22735 7.83479 9.1734C7.68315 8.96118 7.60718 8.70417 7.61907 8.44361C7.62182 8.38969 7.60307 8.3369 7.56693 8.2968C7.53078 8.2567 7.4802 8.23258 7.4263 8.22973C7.39942 8.22774 7.37241 8.23119 7.3469 8.23989C7.32139 8.24859 7.2979 8.26235 7.27784 8.28035C7.25777 8.29836 7.24156 8.32024 7.23016 8.34466C7.21876 8.36909 7.21241 8.39556 7.21149 8.4225C7.19379 8.79112 7.3073 9.15409 7.53186 9.44694C7.61877 9.54166 7.72428 9.61744 7.84179 9.66956C7.95929 9.72168 8.08628 9.74902 8.21483 9.74987H8.25614C8.43723 9.74379 8.61481 9.69816 8.7764 9.61618C8.93799 9.53419 9.07969 9.41784 9.19155 9.27529C9.44049 8.97673 9.60218 8.61523 9.65879 8.23064C9.64973 8.59092 9.55653 8.9441 9.38661 9.26193C9.2167 9.57975 8.9748 9.85342 8.68023 10.0611C8.5318 10.1625 8.35917 10.2228 8.17987 10.2358C8.00058 10.2489 7.82102 10.2143 7.65946 10.1354C7.5078 10.0522 7.38421 9.92593 7.30432 9.77251C7.22442 9.61908 7.19179 9.44541 7.21057 9.27345C7.21727 9.21977 7.20237 9.16563 7.16914 9.12293C7.13592 9.08024 7.08709 9.05249 7.03341 9.0458C6.97972 9.0391 6.92558 9.054 6.88289 9.08723C6.84019 9.12045 6.81244 9.16929 6.80575 9.22297C6.77679 9.479 6.82547 9.73782 6.94546 9.96585C7.06544 10.1939 7.2512 10.3806 7.47862 10.5017C7.67013 10.5977 7.88129 10.6479 8.0955 10.6486C8.37942 10.6449 8.65654 10.5612 8.89504 10.4071C9.24907 10.163 9.53995 9.83812 9.74362 9.45935C9.94729 9.08058 10.0579 8.65878 10.0664 8.22881C10.0664 8.09662 10.0664 7.95342 10.059 7.80196ZM8.82986 8.01218C8.79314 7.98831 8.8216 7.91119 8.82986 7.89558C8.85548 7.84013 8.89529 7.79243 8.94526 7.75729C8.99523 7.72215 9.05359 7.70083 9.11444 7.69548H9.13096C9.15666 7.69548 9.22276 7.70466 9.2558 7.85796C9.2558 7.87448 9.26131 7.891 9.26406 7.90844C9.03457 8.04246 8.88219 8.04706 8.82986 8.01218Z" fill="#F5F5F5"/>
<path d="M6.70202 9.88808C6.65569 9.86206 6.60104 9.85507 6.54965 9.8686C6.49825 9.88213 6.45414 9.91513 6.42663 9.9606C6.41618 9.97763 6.40452 9.9939 6.39175 10.0093L6.38532 9.99273C6.32825 9.76526 6.33046 9.52696 6.39175 9.30059C6.40575 9.24836 6.39843 9.19272 6.3714 9.14589C6.35802 9.12271 6.3402 9.10238 6.31896 9.08608C6.29772 9.06978 6.27349 9.05783 6.24763 9.0509C6.19541 9.0369 6.13976 9.04422 6.09293 9.07125C6.04611 9.09828 6.01194 9.14279 5.99794 9.19502C5.91457 9.5031 5.9168 9.82809 6.00437 10.135C6.09616 10.3847 6.2412 10.4471 6.34585 10.4554H6.37339C6.45972 10.4436 6.54187 10.4109 6.61273 10.3602C6.68359 10.3095 6.74102 10.2423 6.78005 10.1644C6.80614 10.1174 6.81257 10.0619 6.79796 10.0102C6.78334 9.9584 6.74886 9.91452 6.70202 9.88808Z" fill="#F5F5F5"/>
<path d="M10.4656 6.18911C10.5113 6.18908 10.5557 6.17354 10.5914 6.14504L11.6195 5.33816C11.6325 5.32656 11.644 5.31329 11.6535 5.29868C11.7467 5.24326 11.8198 5.15957 11.8623 5.05978C11.9047 4.95999 11.9143 4.84928 11.8896 4.74368C11.8649 4.63809 11.8072 4.54311 11.7248 4.47252C11.6425 4.40193 11.5398 4.35941 11.4317 4.35111C11.3236 4.3428 11.2156 4.36915 11.1235 4.42634C11.0313 4.48353 10.9598 4.56859 10.9193 4.66917C10.8787 4.76975 10.8712 4.88062 10.898 4.98572C10.9247 5.09083 10.9842 5.1847 11.0678 5.25371L10.3399 5.82468C10.3053 5.85047 10.2797 5.88658 10.2669 5.92782C10.2542 5.96907 10.2548 6.01331 10.2688 6.05415C10.2828 6.095 10.3094 6.13034 10.3448 6.15509C10.3801 6.17984 10.4225 6.19271 10.4656 6.19186V6.18911ZM11.3919 4.76167C11.412 4.76167 11.4317 4.76764 11.4485 4.77884C11.4652 4.79004 11.4783 4.80596 11.486 4.82457C11.4937 4.84319 11.4957 4.86368 11.4918 4.88345C11.4879 4.90321 11.4782 4.92137 11.4639 4.93562C11.4497 4.94987 11.4315 4.95958 11.4117 4.96351C11.392 4.96744 11.3715 4.96542 11.3529 4.95771C11.3343 4.95 11.3183 4.93693 11.3071 4.92017C11.2959 4.90342 11.29 4.88372 11.29 4.86357C11.29 4.83655 11.3007 4.81063 11.3198 4.79152C11.3389 4.77241 11.3648 4.76167 11.3919 4.76167Z" fill="#F5F5F5"/>
<path d="M11.1497 5.99687C11.0984 5.97971 11.0424 5.98361 10.9941 6.00772C10.9457 6.03182 10.9089 6.07414 10.8917 6.12539C10.8527 6.22412 10.8396 6.33118 10.8536 6.4364C10.8675 6.54162 10.9082 6.64154 10.9716 6.72667C11.0117 6.76587 11.0595 6.79642 11.1119 6.81647C11.1643 6.83652 11.2203 6.84564 11.2763 6.84325C11.3725 6.84104 11.4676 6.82337 11.5582 6.79092C11.5837 6.78259 11.6074 6.76927 11.6278 6.75174C11.6482 6.73421 11.665 6.71283 11.6771 6.68879C11.6892 6.66476 11.6964 6.63856 11.6983 6.61173C11.7003 6.58489 11.6969 6.55793 11.6883 6.53242C11.6798 6.50691 11.6663 6.48335 11.6486 6.46308C11.6309 6.44282 11.6093 6.42625 11.5852 6.41435C11.561 6.40246 11.5348 6.39546 11.5079 6.39376C11.4811 6.39206 11.4542 6.39569 11.4287 6.40445C11.375 6.42302 11.3192 6.43504 11.2626 6.44025C11.2533 6.37861 11.259 6.31566 11.2791 6.25666C11.2878 6.23112 11.2914 6.20409 11.2897 6.17714C11.2879 6.1502 11.2808 6.12387 11.2687 6.0997C11.2567 6.07553 11.24 6.05398 11.2195 6.03633C11.1991 6.01868 11.1753 6.00527 11.1497 5.99687Z" fill="#F5F5F5"/>
<path d="M13.483 5.15273C13.5087 5.16032 13.5357 5.16276 13.5624 5.1599C13.5891 5.15704 13.6149 5.14892 13.6385 5.13605C13.662 5.12317 13.6828 5.10577 13.6996 5.08485C13.7164 5.06393 13.7289 5.03988 13.7364 5.01411L13.8557 4.60654C13.8636 4.58074 13.8664 4.55363 13.8638 4.52677C13.8612 4.49991 13.8532 4.47384 13.8404 4.45007C13.8277 4.42629 13.8103 4.4053 13.7893 4.38829C13.7683 4.37129 13.7442 4.35862 13.7183 4.35102C13.6924 4.34342 13.6653 4.34104 13.6384 4.34402C13.6116 4.347 13.5857 4.35528 13.5621 4.36838C13.5385 4.38147 13.5177 4.39913 13.501 4.42031C13.4843 4.4415 13.4719 4.46579 13.4647 4.49179L13.3453 4.89937C13.3377 4.92505 13.3352 4.95197 13.338 4.97861C13.3408 5.00524 13.3489 5.03106 13.3616 5.05459C13.3744 5.07812 13.3917 5.0989 13.4126 5.11574C13.4334 5.13257 13.4573 5.14515 13.483 5.15273Z" fill="#F5F5F5"/>
<path d="M12.2953 5.13016C12.3184 5.14486 12.3442 5.15474 12.3713 5.15922C12.3983 5.1637 12.4259 5.16269 12.4526 5.15624C12.4792 5.14979 12.5043 5.13804 12.5262 5.12168C12.5482 5.10533 12.5667 5.08471 12.5805 5.06106C12.5943 5.03741 12.6033 5.01123 12.6067 4.98405C12.6102 4.95687 12.6082 4.92926 12.6008 4.90289C12.5933 4.87652 12.5806 4.85192 12.5635 4.83056C12.5463 4.8092 12.525 4.79153 12.5009 4.77858C12.4596 4.75471 12.4651 4.68679 12.4669 4.67393C12.4685 4.64511 12.4779 4.61725 12.4941 4.59332C12.5102 4.5694 12.5326 4.5503 12.5587 4.53807C12.5843 4.53011 12.608 4.51721 12.6286 4.50008C12.6492 4.48295 12.6661 4.46194 12.6786 4.43824C12.691 4.41454 12.6987 4.38863 12.7011 4.36197C12.7035 4.33531 12.7007 4.30843 12.6927 4.28287C12.6848 4.25732 12.6719 4.23359 12.6547 4.21302C12.6376 4.19245 12.6166 4.17546 12.5929 4.16301C12.5692 4.15057 12.5433 4.14292 12.5166 4.14049C12.49 4.13806 12.4631 4.1409 12.4376 4.14885C12.3351 4.18372 12.2449 4.24753 12.1779 4.33257C12.111 4.41761 12.0701 4.52024 12.0603 4.62803C12.0459 4.72555 12.0606 4.82512 12.1024 4.91439C12.1441 5.00366 12.2112 5.07869 12.2953 5.13016Z" fill="#F5F5F5"/>
<path d="M10.6777 8.43164C10.627 8.43163 10.5781 8.45053 10.5406 8.48463C10.5031 8.51873 10.4796 8.5656 10.4748 8.61607C10.47 8.66654 10.4841 8.717 10.5145 8.75758C10.5449 8.79817 10.5894 8.82597 10.6392 8.83555C10.6712 8.89972 10.6845 8.97161 10.6777 9.04301C10.6777 9.09705 10.6992 9.14889 10.7374 9.18711C10.7756 9.22533 10.8274 9.24679 10.8815 9.24679C10.9355 9.24679 10.9874 9.22533 11.0256 9.18711C11.0638 9.14889 11.0853 9.09705 11.0853 9.04301C11.0853 8.44174 10.6942 8.43164 10.6777 8.43164Z" fill="#F5F5F5"/>
<path d="M14.1366 7.58817C14.1621 7.59243 14.1879 7.59459 14.2137 7.5946C14.3061 7.58838 14.3963 7.56383 14.479 7.52238C14.5617 7.48093 14.6354 7.42341 14.6957 7.35318C14.7146 7.33425 14.7296 7.31178 14.7399 7.28705C14.7501 7.26232 14.7554 7.23582 14.7554 7.20906C14.7554 7.18229 14.7501 7.15578 14.7399 7.13105C14.7296 7.10632 14.7146 7.08387 14.6957 7.06494C14.6768 7.04601 14.6543 7.03099 14.6296 7.02075C14.6048 7.0105 14.5783 7.00524 14.5516 7.00524C14.5248 7.00524 14.4983 7.0105 14.4736 7.02075C14.4488 7.03099 14.4264 7.04601 14.4074 7.06494C14.2853 7.18703 14.2238 7.18977 14.2027 7.1861C14.1642 7.18059 14.1284 7.13011 14.121 7.11542C14.109 7.09131 14.0923 7.06981 14.0719 7.05215C14.0516 7.03449 14.0279 7.02102 14.0023 7.0125C13.9768 7.00397 13.9498 7.00056 13.9229 7.00247C13.896 7.00438 13.8697 7.01158 13.8456 7.02363C13.8215 7.03569 13.8 7.05236 13.7824 7.07273C13.7647 7.09309 13.7512 7.11674 13.7427 7.14231C13.7342 7.16789 13.7308 7.19489 13.7327 7.22178C13.7346 7.24866 13.7418 7.2749 13.7538 7.29901C13.7917 7.37296 13.8458 7.43739 13.9121 7.48746C13.9784 7.53754 14.0551 7.57196 14.1366 7.58817Z" fill="#F5F5F5"/>
<path d="M17.603 6.1554V6.14622C17.5944 6.12084 17.581 6.0974 17.5633 6.07723C17.5457 6.05706 17.5243 6.04056 17.5003 6.02867C17.4763 6.01678 17.4502 6.00973 17.4235 6.00792C17.3967 6.00612 17.37 6.0096 17.3446 6.01816C17.3192 6.02672 17.2957 6.0402 17.2756 6.05782C17.2554 6.07544 17.2389 6.09685 17.227 6.12085C17.2151 6.14484 17.2081 6.17094 17.2063 6.19766C17.2045 6.22438 17.208 6.25119 17.2165 6.27656C17.239 6.35394 17.2815 6.42403 17.3396 6.47978C17.3978 6.53553 17.4696 6.57499 17.5479 6.59419C17.5629 6.59518 17.5779 6.59518 17.5929 6.59419C17.6765 6.58526 17.7566 6.55532 17.8256 6.50718C17.8946 6.45903 17.9503 6.39424 17.9876 6.3188C18.0024 6.29649 18.0127 6.2715 18.0179 6.24522C18.0231 6.21894 18.023 6.1919 18.0177 6.16564C18.0124 6.13939 18.002 6.11444 17.9871 6.0922C17.9721 6.06997 17.953 6.05089 17.9307 6.03606C17.9084 6.02124 17.8834 6.01095 17.8571 6.00578C17.8308 6.00062 17.8038 6.00068 17.7775 6.00596C17.7513 6.01125 17.7263 6.02165 17.7041 6.03658C17.6818 6.05151 17.6628 6.07067 17.648 6.09297C17.6343 6.11471 17.6193 6.13557 17.603 6.1554Z" fill="#F5F5F5"/>
<path d="M17.2018 9.85949C17.2018 8.99018 17.1632 8.17411 17.11 7.45993C17.3863 7.92452 17.6257 8.41008 17.826 8.91215C17.8406 8.95101 17.8667 8.98448 17.9008 9.0081C17.9349 9.03172 17.9755 9.04437 18.017 9.04434C18.0414 9.04434 18.0656 9.03998 18.0886 9.03148C18.1136 9.02209 18.1366 9.00785 18.1562 8.98957C18.1758 8.97129 18.1916 8.94934 18.2026 8.92495C18.2137 8.90057 18.2199 8.87424 18.2208 8.84747C18.2217 8.8207 18.2173 8.79402 18.2079 8.76894C17.8857 7.98897 17.4911 7.24092 17.0292 6.53461C16.9182 5.43306 16.7933 4.73908 16.7906 4.72715C16.7858 4.70081 16.7759 4.67566 16.7614 4.65315C16.7469 4.63063 16.7282 4.6112 16.7062 4.59594C16.6842 4.58068 16.6594 4.5699 16.6332 4.56422C16.6071 4.55854 16.5801 4.55807 16.5537 4.56283C16.5274 4.56759 16.5022 4.5775 16.4797 4.59198C16.4572 4.60646 16.4378 4.62523 16.4225 4.64722C16.4073 4.66921 16.3965 4.69399 16.3908 4.72014C16.3851 4.7463 16.3847 4.77332 16.3894 4.79966C16.3894 4.80884 16.4555 5.16685 16.5317 5.77179C16.3747 5.53955 16.2297 5.32933 16.1076 5.15676H16.1177C16.1431 5.16552 16.1701 5.16914 16.1969 5.16744C16.2238 5.16574 16.25 5.15875 16.2741 5.14685C16.2983 5.13496 16.3198 5.1184 16.3375 5.09814C16.3552 5.07787 16.3687 5.0543 16.3773 5.02879C16.3858 5.00327 16.3892 4.97632 16.3873 4.94948C16.3854 4.92264 16.3781 4.89646 16.366 4.87243C16.3539 4.8484 16.3372 4.82699 16.3168 4.80947C16.2964 4.79194 16.2727 4.77862 16.2471 4.77029L15.6358 4.5665C15.6098 4.55762 15.5822 4.55414 15.5548 4.55627C15.5274 4.55841 15.5007 4.56611 15.4764 4.57891C15.4521 4.59171 15.4306 4.60935 15.4134 4.63074C15.3961 4.65212 15.3834 4.67681 15.376 4.70328C15.3198 4.65095 15.2511 4.61407 15.1764 4.59621C15.1018 4.57835 15.0238 4.58014 14.95 4.60139C14.8823 4.63339 14.8268 4.68644 14.7917 4.75263C14.7566 4.81881 14.7439 4.89456 14.7554 4.96857C14.7707 5.16737 14.8181 5.36237 14.8959 5.54597C15.0161 5.88562 15.0914 6.13622 14.9638 6.25555C14.9384 6.28498 14.9057 6.30726 14.8689 6.32014C14.8322 6.33302 14.7928 6.33607 14.7545 6.32899C14.6288 6.29686 14.5039 6.1298 14.4213 5.88103C14.4166 5.87109 14.4111 5.86157 14.4048 5.85257C14.4458 5.47563 14.4247 5.0945 14.3423 4.72439C14.3318 4.67131 14.3005 4.62462 14.2555 4.59458C14.2105 4.56454 14.1554 4.55361 14.1023 4.5642C14.0492 4.57479 14.0025 4.60604 13.9725 4.65106C13.9424 4.69608 13.9315 4.75118 13.9421 4.80425C14.0966 5.28409 14.0584 5.80521 13.8356 6.2574C13.7994 6.30284 13.7528 6.33902 13.6998 6.36296C13.6469 6.3869 13.5889 6.39791 13.5309 6.39509C13.5122 6.39585 13.4937 6.39217 13.4768 6.38435C13.4599 6.37652 13.4451 6.36479 13.4336 6.35011C13.2832 5.9865 13.2455 5.58613 13.3252 5.20082C13.3293 5.17193 13.3271 5.14249 13.3189 5.11451C13.3106 5.08653 13.2964 5.06065 13.2772 5.03863C13.2581 5.01662 13.2344 4.99897 13.2079 4.98688C13.1813 4.97479 13.1525 4.96855 13.1233 4.96857C12.7726 4.96857 12.6395 5.36788 12.522 5.71946C12.4706 5.8746 12.3742 6.16192 12.3081 6.19221C12.1851 6.19221 12.1053 5.82962 12.1044 5.57994C12.1044 5.52589 12.0829 5.47405 12.0447 5.43583C12.0064 5.39761 11.9546 5.37615 11.9006 5.37615C11.8465 5.37615 11.7947 5.39761 11.7565 5.43583C11.7182 5.47405 11.6968 5.52589 11.6968 5.57994C11.6968 6.04993 11.8574 6.59979 12.3081 6.59979C12.6441 6.59979 12.7809 6.23261 12.8947 5.89297C12.8965 6.15227 12.9772 6.40488 13.126 6.61724C13.176 6.67581 13.2383 6.72262 13.3084 6.75436C13.3785 6.78609 13.4548 6.80196 13.5318 6.80083C13.6503 6.80354 13.7679 6.77905 13.8754 6.72924C13.983 6.67943 14.0777 6.60563 14.1523 6.5135C14.1801 6.47773 14.2053 6.44 14.2276 6.40059C14.3265 6.55541 14.4782 6.6692 14.6545 6.72096C14.7016 6.73301 14.75 6.73918 14.7986 6.73933C14.9658 6.73621 15.1251 6.66804 15.2429 6.54931C15.2679 6.52386 15.2907 6.49621 15.3108 6.46669C15.3597 6.48128 15.4103 6.48899 15.4613 6.48964C15.6116 6.48578 15.7579 6.44104 15.8845 6.36021C15.9302 6.33112 15.9624 6.28508 15.9741 6.23223C15.9858 6.17938 15.976 6.12404 15.9469 6.07839C15.9179 6.03274 15.8718 6.00052 15.819 5.98882C15.7661 5.97711 15.7108 5.98688 15.6651 6.01597C15.5955 6.05735 15.5157 6.07834 15.4347 6.07656C15.4204 5.84624 15.3683 5.61984 15.2805 5.40645C15.2382 5.29524 15.203 5.18149 15.1749 5.06588C15.1915 5.07965 15.208 5.09433 15.2227 5.10902C15.2416 5.12795 15.2641 5.14297 15.2888 5.15321C15.3135 5.16346 15.34 5.16873 15.3668 5.16873C15.3936 5.16873 15.4201 5.16346 15.4448 5.15321C15.4695 5.14297 15.492 5.12795 15.5109 5.10902C15.5227 5.09544 15.5326 5.08031 15.5403 5.06404C15.7514 5.35504 16.1829 5.96732 16.6336 6.67232C16.719 7.53887 16.7942 8.64502 16.7942 9.85765C16.7942 9.9117 16.8157 9.96353 16.8539 10.0017C16.8921 10.04 16.944 10.0614 16.998 10.0614C17.0521 10.0614 17.1039 10.04 17.1421 10.0017C17.1803 9.96353 17.2018 9.9117 17.2018 9.85765V9.85949Z" fill="#F5F5F5"/>
<path d="M17.4056 5.37425C17.4056 5.4283 17.4271 5.48013 17.4653 5.51834C17.5035 5.55656 17.5553 5.57804 17.6094 5.57804C17.6634 5.57804 17.7153 5.55656 17.7535 5.51834C17.7917 5.48013 17.8132 5.4283 17.8132 5.37425C17.7805 5.12827 17.704 4.89012 17.5874 4.67109C17.5753 4.64698 17.5586 4.62548 17.5383 4.60782C17.5179 4.59016 17.4942 4.57667 17.4687 4.56815C17.4431 4.55962 17.4161 4.55622 17.3892 4.55813C17.3623 4.56004 17.3361 4.56724 17.312 4.5793C17.2878 4.59135 17.2664 4.60803 17.2487 4.62839C17.231 4.64876 17.2176 4.67241 17.209 4.69798C17.2005 4.72355 17.1971 4.75055 17.199 4.77744C17.2009 4.80433 17.2081 4.83057 17.2202 4.85468C17.3081 5.01739 17.3707 5.19262 17.4056 5.37425Z" fill="#F5F5F5"/>
<path d="M16.4784 9.88158C16.4543 9.86933 16.428 9.86197 16.4011 9.85996C16.3742 9.85794 16.3471 9.86132 16.3215 9.86986C16.2958 9.8784 16.2722 9.89195 16.2518 9.90972C16.2315 9.92749 16.2149 9.94912 16.203 9.97337C16.1801 10.0172 16.1517 10.0579 16.1185 10.0945C16.1153 9.96664 16.1336 9.8391 16.1727 9.71727C16.1859 9.67382 16.1843 9.62721 16.168 9.58482C16.1517 9.54242 16.1217 9.50668 16.0828 9.48326C16.0439 9.45985 15.9983 9.45012 15.9532 9.45559C15.9081 9.46106 15.8662 9.48144 15.834 9.51348L15.4264 9.92105C15.3882 9.95928 15.3667 10.0111 15.3667 10.0652C15.3667 10.1192 15.3882 10.1711 15.4264 10.2093C15.4646 10.2475 15.5164 10.269 15.5705 10.269C15.6246 10.269 15.6764 10.2475 15.7146 10.2093L15.7247 10.1992C15.7396 10.2796 15.7776 10.3539 15.834 10.4131C15.8682 10.4492 15.9092 10.4782 15.9548 10.4982C16.0004 10.5182 16.0495 10.5289 16.0992 10.5297C16.1179 10.5311 16.1366 10.5311 16.1552 10.5297C16.2464 10.5017 16.3305 10.4545 16.4018 10.3911C16.4731 10.3278 16.5299 10.2498 16.5683 10.1625C16.5815 10.1383 16.5897 10.1116 16.5923 10.0842C16.5949 10.0567 16.5919 10.029 16.5835 10.0028C16.5751 9.97651 16.5614 9.95222 16.5433 9.93139C16.5253 9.91056 16.5032 9.89362 16.4784 9.88158Z" fill="#F5F5F5"/>
<path d="M16.3993 8.24115H14.9627C14.9756 8.19036 14.9887 8.14201 15.0022 8.09611C15.575 7.97677 15.9202 7.79227 16.012 7.54534C16.0412 7.46891 16.0494 7.38604 16.0359 7.30534C16.0223 7.22464 15.9874 7.14904 15.9348 7.08636C15.8801 7.00299 15.8019 6.93769 15.7101 6.89865C15.6183 6.85961 15.517 6.84859 15.4189 6.86697C15.1289 6.92572 14.8682 7.23415 14.6846 7.73719C14.2526 7.7943 13.845 7.97072 13.5077 8.24666C13.4714 7.76845 13.3267 7.30481 13.0846 6.89083C13.0697 6.86853 13.0507 6.84936 13.0284 6.83443C13.0062 6.8195 12.9812 6.80911 12.955 6.80382C12.9287 6.79854 12.9017 6.79846 12.8754 6.80363C12.8491 6.80879 12.8241 6.81908 12.8018 6.83391C12.7795 6.84874 12.7604 6.86782 12.7454 6.89005C12.7305 6.91228 12.7201 6.93723 12.7148 6.96349C12.7095 6.98974 12.7095 7.01678 12.7146 7.04306C12.7198 7.06934 12.7301 7.09434 12.7449 7.11664C13.004 7.57982 13.1331 8.10443 13.1185 8.63496C13.1335 9.00616 13.0199 9.37115 12.797 9.66833C12.5741 9.96551 12.2554 10.1767 11.8949 10.2662C11.6663 10.2662 11.5653 9.99079 11.5213 9.76405C11.9539 9.51742 12.2967 9.13928 12.4998 8.68453C12.5856 8.3128 12.5375 7.92274 12.364 7.58298L12.3493 7.54717L12.3621 7.55911C12.4003 7.59733 12.4522 7.61881 12.5062 7.61881C12.5603 7.61881 12.6121 7.59733 12.6504 7.55911C12.6886 7.52089 12.7101 7.46905 12.7101 7.41499C12.7101 7.36093 12.6886 7.30908 12.6504 7.27086C12.531 7.15152 12.2997 6.96427 12.0895 7.05239C12.0218 7.08439 11.9662 7.13744 11.9311 7.20362C11.8961 7.26981 11.8833 7.34556 11.8949 7.41957C11.9035 7.5338 11.9347 7.6452 11.9867 7.74729C12.1245 8.00673 12.1652 8.30687 12.1014 8.59365C11.9557 8.89853 11.7237 9.15389 11.4341 9.32803C11.4156 9.30483 11.3921 9.28604 11.3654 9.27302C11.3388 9.26 11.3095 9.25308 11.2798 9.25275C11.2258 9.25275 11.174 9.27422 11.1357 9.31244C11.0975 9.35066 11.0761 9.40249 11.0761 9.45654C11.0761 9.49326 11.0761 9.53273 11.0761 9.57312C10.656 9.84263 10.2177 10.0825 9.76429 10.291C9.72195 10.3103 9.68748 10.3435 9.66663 10.3851C9.64578 10.4267 9.63979 10.4741 9.64965 10.5196C9.65952 10.5651 9.68465 10.6058 9.72087 10.635C9.75708 10.6642 9.80221 10.6802 9.84874 10.6802C9.87788 10.6802 9.90669 10.674 9.93318 10.6618C10.3517 10.4686 10.7584 10.251 11.1513 10.0101C11.179 10.1887 11.2669 10.3526 11.4005 10.4745C11.5341 10.5963 11.7052 10.6689 11.8857 10.6802C12.1793 10.6443 12.4587 10.5338 12.6975 10.3593C12.9363 10.1848 13.1264 9.95207 13.2498 9.68327C13.2885 9.75252 13.334 9.81772 13.3857 9.87789C13.8121 10.2665 14.3693 10.4801 14.9462 10.4764C15.0002 10.4783 15.0529 10.4587 15.0924 10.4219C15.132 10.3851 15.1554 10.334 15.1573 10.28C15.1593 10.2259 15.1397 10.1733 15.1028 10.1337C15.066 10.0941 15.0149 10.0708 14.9609 10.0688C14.8647 10.0569 14.7752 10.0133 14.7066 9.9449C14.6778 9.90711 14.657 9.86385 14.6455 9.81777C14.634 9.77169 14.632 9.72373 14.6396 9.67685C14.6607 9.42532 15.4713 9.23807 16.1854 9.22705C16.2271 9.22643 16.2675 9.21307 16.3013 9.18878C16.3351 9.1645 16.3607 9.13043 16.3745 9.09118L16.5783 8.51746C16.5899 8.48654 16.5939 8.45326 16.5897 8.4205C16.5856 8.38773 16.5736 8.35646 16.5548 8.32937C16.5359 8.30227 16.5107 8.28017 16.4814 8.26496C16.4521 8.24976 16.4195 8.24191 16.3865 8.24208L16.3993 8.24115ZM15.5043 7.26719H15.5199C15.5392 7.26719 15.5704 7.27637 15.6117 7.33236C15.6191 7.34246 15.6448 7.37826 15.6383 7.39387C15.6154 7.4517 15.474 7.54717 15.1793 7.63346C15.3088 7.3801 15.4355 7.28188 15.5043 7.26811V7.26719ZM14.2733 9.94764C14.0577 9.88598 13.8627 9.7674 13.7088 9.60433C13.627 9.50569 13.5681 9.39015 13.5364 9.26602C13.5046 9.14189 13.5008 9.01227 13.5252 8.88648C13.5369 8.85664 13.551 8.82778 13.5674 8.80019C13.8547 8.77357 14.6212 8.88739 14.6745 9.10679C14.5621 9.14982 14.4631 9.22169 14.3874 9.31516C14.3116 9.40862 14.2618 9.52039 14.243 9.63921C14.2344 9.74301 14.2446 9.84752 14.2733 9.94764Z" fill="#F5F5F5"/>
<path d="M18.619 5.30925L18.4152 4.69789C18.3997 4.64987 18.367 4.60931 18.3233 4.58404C18.2796 4.55877 18.2281 4.5506 18.1788 4.56111C18.1294 4.57162 18.0858 4.60006 18.0562 4.64092C18.0266 4.68179 18.0132 4.73218 18.0186 4.78234C18.1591 6.18958 18.4253 8.93337 18.4253 9.24732C18.4253 9.53005 17.9232 10.0863 17.1108 10.4921C17.0867 10.5041 17.0652 10.5208 17.0475 10.5412C17.0298 10.5616 17.0164 10.5852 17.0078 10.6108C16.9993 10.6363 16.9959 10.6633 16.9978 10.6902C16.9997 10.7171 17.0069 10.7434 17.019 10.7675C17.031 10.7916 17.0477 10.8131 17.0681 10.8307C17.0885 10.8484 17.1121 10.8619 17.1377 10.8704C17.1632 10.8789 17.1902 10.8823 17.2171 10.8804C17.244 10.8785 17.2703 10.8713 17.2944 10.8593C18.0361 10.4921 18.8347 9.82656 18.8347 9.25007C18.8347 8.94898 18.6263 6.78166 18.507 5.56352C18.5544 5.54317 18.5923 5.50563 18.613 5.45844C18.6338 5.41126 18.6359 5.35794 18.619 5.30925Z" fill="#F5F5F5"/>
<path d="M20.32 7.14843C20.3516 7.17999 20.3927 7.2003 20.4369 7.20624C20.4812 7.21218 20.5261 7.20343 20.5649 7.18132C20.6037 7.15921 20.6342 7.12498 20.6516 7.08388C20.669 7.04277 20.6725 6.99708 20.6615 6.95382C20.6261 6.82509 20.6161 6.69072 20.6321 6.55818C20.6827 6.56014 20.7322 6.54346 20.7713 6.51131C20.8104 6.47916 20.8363 6.43377 20.8441 6.38376C20.8518 6.33033 20.8378 6.27607 20.8055 6.23288C20.7731 6.18968 20.725 6.16109 20.6716 6.15336C20.6106 6.1423 20.5478 6.14684 20.489 6.16658C20.4303 6.18633 20.3775 6.22063 20.3356 6.26627C20.2827 6.32881 20.2473 6.40415 20.2328 6.48474L19.9969 6.24882C19.9779 6.22989 19.9554 6.21488 19.9307 6.20464C19.906 6.1944 19.8795 6.18912 19.8527 6.18912C19.826 6.18912 19.7995 6.1944 19.7747 6.20464C19.75 6.21488 19.7275 6.22989 19.7086 6.24882C19.6897 6.26774 19.6747 6.29022 19.6644 6.31495C19.6542 6.33967 19.6489 6.36617 19.6489 6.39294C19.6489 6.4197 19.6542 6.44621 19.6644 6.47094C19.6747 6.49567 19.6897 6.51814 19.7086 6.53707L20.32 7.14843Z" fill="#F5F5F5"/>
<path d="M20.7782 7.35758L20.0135 7.90835C19.9696 7.93988 19.9399 7.98757 19.9312 8.04094C19.9224 8.09431 19.9352 8.14898 19.9667 8.19293C19.9982 8.23687 20.0459 8.26648 20.0993 8.27526C20.1526 8.28404 20.2073 8.27127 20.2513 8.23974L21.0159 7.68896C21.0377 7.67334 21.0562 7.6536 21.0703 7.63085C21.0844 7.6081 21.0939 7.58279 21.0983 7.55636C21.1026 7.52994 21.1017 7.50292 21.0956 7.47685C21.0895 7.45077 21.0784 7.42615 21.0628 7.40439C21.0472 7.38263 21.0274 7.36416 21.0046 7.35003C20.9819 7.3359 20.9566 7.32639 20.9302 7.32204C20.9038 7.31769 20.8767 7.31859 20.8506 7.32469C20.8246 7.33078 20.7999 7.34197 20.7782 7.35758Z" fill="#F5F5F5"/>
<path d="M20.7111 8.12878C20.6804 8.16829 20.6653 8.21773 20.6687 8.26767C20.6721 8.31762 20.6937 8.36457 20.7295 8.39958C20.7692 8.49207 20.7834 8.59349 20.7708 8.69333C20.7698 8.7201 20.7741 8.7468 20.7835 8.7719C20.7928 8.797 20.807 8.82 20.8253 8.83961C20.8435 8.85922 20.8655 8.87504 20.8898 8.88617C20.9142 8.89729 20.9405 8.90351 20.9673 8.90446H20.9746C21.0274 8.9045 21.0782 8.88404 21.1162 8.8474C21.1542 8.81075 21.1765 8.76078 21.1784 8.70801C21.1931 8.29217 21.0572 8.1398 20.9948 8.0939C20.9524 8.06135 20.8989 8.04676 20.8458 8.05328C20.7928 8.05981 20.7444 8.08692 20.7111 8.12878Z" fill="#F5F5F5"/>
<path d="M22.49 9.62842C22.5441 9.62842 22.5959 9.60694 22.6341 9.56872C22.6723 9.5305 22.6938 9.47867 22.6938 9.42463C22.6938 9.12353 22.6782 8.78755 22.6534 8.43873C22.8327 8.72346 22.9925 9.02002 23.1316 9.3264C23.147 9.36256 23.1726 9.39349 23.2052 9.41548C23.2377 9.43747 23.276 9.44958 23.3153 9.45033C23.3427 9.45034 23.3699 9.44471 23.3951 9.4338C23.4198 9.4233 23.4422 9.40802 23.4609 9.38885C23.4797 9.36968 23.4945 9.34699 23.5045 9.32208C23.5145 9.29718 23.5194 9.27055 23.5191 9.24373C23.5187 9.2169 23.5131 9.19039 23.5025 9.16575C23.2367 8.60478 22.9247 8.06685 22.5699 7.55748C22.49 6.80933 22.3863 6.07588 22.3046 5.54989C22.3495 5.55417 22.3946 5.54282 22.4322 5.51776C22.4625 5.49823 22.4871 5.47087 22.5033 5.43856C22.5194 5.40626 22.5266 5.37019 22.524 5.33417C22.5284 5.35485 22.5362 5.37468 22.5469 5.39291C22.6293 5.54558 22.6556 5.72226 22.6213 5.89229C22.6104 5.94511 22.6209 6.00009 22.6505 6.04517C22.6801 6.09025 22.7264 6.12177 22.7791 6.13281C22.7929 6.13413 22.8067 6.13413 22.8205 6.13281C22.8673 6.13272 22.9126 6.11652 22.9489 6.08693C22.9852 6.05734 23.0102 6.01617 23.0197 5.97033C23.0746 5.69663 23.0286 5.41229 22.8902 5.16985C22.861 5.12433 22.815 5.09221 22.7622 5.08052C22.7094 5.06882 22.6541 5.0785 22.6084 5.10744C22.5781 5.12704 22.5536 5.15441 22.5375 5.1867C22.5213 5.21899 22.5141 5.25501 22.5166 5.29103C22.5122 5.27034 22.5044 5.25051 22.4937 5.23228L22.1494 4.6971C22.1242 4.65704 22.0857 4.62704 22.0407 4.61226C21.9957 4.59748 21.9469 4.59885 21.9028 4.61613C21.8587 4.6334 21.822 4.66552 21.799 4.70693C21.776 4.74835 21.7681 4.79647 21.7767 4.84305C21.7767 4.85866 21.9356 5.75368 22.0732 6.83229C21.9172 6.61198 21.7602 6.39534 21.6087 6.18972C21.584 5.88128 21.5592 5.59579 21.5381 5.36354C21.5494 5.3602 21.5605 5.3559 21.5711 5.3507C21.5954 5.33879 21.617 5.32218 21.6348 5.30184C21.6525 5.2815 21.6661 5.25784 21.6746 5.23221C21.6832 5.20659 21.6865 5.17952 21.6845 5.15258C21.6825 5.12565 21.6752 5.09938 21.6629 5.0753L21.4591 4.66773C21.438 4.62481 21.4025 4.59068 21.3587 4.57133C21.315 4.55198 21.2658 4.54864 21.2199 4.56188C21.1739 4.57512 21.1341 4.6041 21.1073 4.64376C21.0806 4.68342 21.0686 4.73123 21.0736 4.7788C21.0984 5.02206 21.1232 5.29195 21.1479 5.57468C21.0194 5.40486 20.8992 5.24881 20.7973 5.1157C20.8228 5.09384 20.8425 5.066 20.8546 5.03468C20.8668 5.00336 20.871 4.96952 20.8669 4.93617C20.8628 4.90283 20.8505 4.87102 20.8312 4.84356C20.8118 4.8161 20.786 4.79386 20.756 4.7788L20.3484 4.57502C20.3067 4.55376 20.259 4.54746 20.2133 4.5572C20.1676 4.56693 20.1266 4.5921 20.0972 4.62848C20.0678 4.66486 20.0518 4.71022 20.052 4.75698C20.0521 4.80374 20.0682 4.84904 20.0978 4.88529C20.1088 4.89905 20.6109 5.52787 21.2113 6.34027C21.3307 7.34978 21.3559 8.36821 21.2866 9.3824C21.2682 9.43656 21.237 9.4999 21.2076 9.50174C21.0846 9.51918 20.7899 9.24378 20.6422 8.95095C20.6212 8.89537 20.5834 8.84777 20.534 8.81483C20.4846 8.78189 20.4261 8.76529 20.3667 8.76736C20.1474 8.78113 20.062 9.02164 19.9078 9.4595C19.8219 9.76769 19.6851 10.0593 19.503 10.3224C19.3702 10.0727 19.2843 9.80075 19.2496 9.52008C19.2658 9.56507 19.2972 9.60291 19.3386 9.62693C19.3799 9.65095 19.4284 9.6596 19.4754 9.65137C19.5225 9.64314 19.5652 9.61855 19.5959 9.58194C19.6267 9.54533 19.6435 9.49904 19.6434 9.45124C19.6434 9.14739 19.4304 6.83138 19.312 5.56275C19.3602 5.54342 19.3992 5.50644 19.421 5.45936C19.4428 5.41228 19.4459 5.35864 19.4295 5.30939L19.2257 4.69803C19.2102 4.65019 19.1775 4.6098 19.134 4.58461C19.0904 4.55942 19.0391 4.55123 18.9899 4.5616C18.9407 4.57196 18.8971 4.60016 18.8674 4.64076C18.8377 4.68137 18.8241 4.73153 18.8292 4.78156C18.9678 6.23654 19.2276 9.0455 19.2358 9.43288V9.42279C19.2281 9.36923 19.1995 9.3209 19.1562 9.28845C19.1129 9.256 19.0585 9.24208 19.005 9.24975C18.9514 9.25742 18.9031 9.28606 18.8706 9.32935C18.8382 9.37265 18.8242 9.42705 18.8319 9.48061C18.8916 9.89737 19.044 10.6143 19.3937 10.7309C19.4286 10.7425 19.4652 10.7484 19.502 10.7483C19.5565 10.7469 19.61 10.7343 19.6594 10.7114C19.7088 10.6885 19.753 10.6558 19.7893 10.6152C20.0224 10.3117 20.1939 9.96557 20.2942 9.59628C20.3245 9.51183 20.3594 9.41268 20.3934 9.3264C20.577 9.60179 20.9065 9.9396 21.237 9.91298C21.3426 9.90168 21.4418 9.85707 21.5204 9.78562C21.5989 9.71416 21.6527 9.61956 21.6739 9.5155C21.7658 8.66935 21.7634 7.81559 21.6666 6.96998C21.8383 7.21049 22.0099 7.45742 22.1742 7.70435C22.2376 8.3148 22.2835 8.92708 22.2835 9.42921C22.2847 9.48294 22.3071 9.53402 22.3457 9.57132C22.3844 9.60863 22.4363 9.62915 22.49 9.62842Z" fill="#F5F5F5"/>
<path d="M24.0378 8.55783C23.8937 7.48197 23.6917 6.23537 23.5651 5.47071C23.5945 5.47782 23.6251 5.47821 23.6546 5.47185C23.6842 5.4655 23.7119 5.45256 23.7358 5.43399C23.7788 5.40123 23.8069 5.35276 23.8142 5.29923C23.8214 5.2457 23.8071 5.19148 23.7744 5.1485L23.4072 4.66382C23.3805 4.62481 23.341 4.59631 23.2956 4.58319C23.2501 4.57008 23.2016 4.57316 23.1582 4.59193C23.1148 4.6107 23.0792 4.64399 23.0577 4.68607C23.0361 4.72816 23.0298 4.77644 23.04 4.82263C23.04 4.84374 23.4072 6.93394 23.6321 8.61198C23.6874 8.8763 23.686 9.14935 23.6281 9.41311C23.5702 9.67687 23.457 9.92538 23.2961 10.1422C23.2008 10.2424 23.0838 10.3193 22.9541 10.367C22.8244 10.4148 22.6854 10.4321 22.548 10.4176C22.5209 10.4153 22.4936 10.4184 22.4678 10.4267C22.442 10.4351 22.4181 10.4485 22.3975 10.4662C22.3769 10.4839 22.3601 10.5056 22.348 10.5299C22.3359 10.5542 22.3288 10.5807 22.3271 10.6078C22.3254 10.6349 22.3291 10.6621 22.338 10.6877C22.347 10.7133 22.3609 10.7369 22.3791 10.7571C22.3973 10.7773 22.4193 10.7936 22.4439 10.8051C22.4685 10.8167 22.4951 10.8232 22.5222 10.8243C22.5571 10.8243 22.5911 10.8243 22.6242 10.8243C22.8056 10.8281 22.9858 10.7934 23.1529 10.7225C23.32 10.6516 23.4701 10.5461 23.5935 10.413C23.7974 10.1543 23.9427 9.8545 24.0194 9.5342C24.0961 9.2139 24.1023 8.88079 24.0378 8.55783Z" fill="#F5F5F5"/>
<path d="M21.7953 9.89903C21.7596 9.9388 21.7407 9.99085 21.7426 10.0443C21.7444 10.0977 21.767 10.1483 21.8054 10.1854C21.8176 10.1968 21.8262 10.2115 21.8302 10.2277C21.8247 10.2458 21.8138 10.2618 21.799 10.2736C21.7607 10.3118 21.7393 10.3636 21.7393 10.4177C21.7393 10.4717 21.7607 10.5236 21.799 10.5618C21.8372 10.6 21.889 10.6215 21.9431 10.6215C21.9971 10.6215 22.049 10.6 22.0872 10.5618C22.1356 10.5179 22.1741 10.4641 22.2001 10.4041C22.226 10.3441 22.2389 10.2792 22.2377 10.2139C22.2303 10.0864 22.1729 9.96704 22.078 9.88158C22.038 9.84681 21.986 9.82915 21.9331 9.83241C21.8802 9.83568 21.8307 9.85961 21.7953 9.89903Z" fill="#F5F5F5"/>
<path d="M21.0763 14.3734H19.6489V14.1696C19.6489 14.1156 19.6274 14.0637 19.5892 14.0255C19.551 13.9873 19.4992 13.9658 19.4451 13.9658C19.3911 13.9658 19.3392 13.9873 19.301 14.0255C19.2628 14.0637 19.2413 14.1156 19.2413 14.1696V14.3734H8.43506C8.95683 14.7854 9.60639 15.0017 10.271 14.9848H19.2423V15.3924C19.2423 15.4464 19.2637 15.4982 19.3019 15.5364C19.3402 15.5746 19.392 15.5961 19.446 15.5961H21.0773C21.2395 15.5961 21.3952 15.5317 21.5099 15.4169C21.6246 15.3022 21.6891 15.1466 21.6891 14.9843C21.6891 14.822 21.6246 14.6664 21.5099 14.5517C21.3952 14.4369 21.2395 14.3725 21.0773 14.3725L21.0763 14.3734ZM21.0763 15.1885H19.6489V14.9848H21.2801L21.2434 14.8746C21.2664 14.9068 21.2792 14.9452 21.2801 14.9848C21.2803 15.0116 21.2751 15.0382 21.2649 15.063C21.2547 15.0879 21.2397 15.1104 21.2208 15.1295C21.2018 15.1485 21.1793 15.1636 21.1545 15.1739C21.1298 15.1842 21.1032 15.1895 21.0763 15.1895V15.1885Z" fill="#F5F5F5"/>
</svg>
