<svg width="30" height="18" viewBox="0 0 30 18" fill="none" xmlns="http://www.w3.org/2000/svg">
<path d="M8.94727 0L12.1348 0.972657L8.94727 1.93945L12.1348 2.91211L8.94727 3.88477L12.1348 4.85742L8.94727 5.83008L12.1348 6.80273L8.94727 7.77539L12.1348 8.74805L8.94727 9.7207L12.1348 10.6934L8.94727 11.666L12.1348 12.6387L8.94727 13.6113L12.1348 14.584L8.94727 15.5566L12.1348 16.5293L8.94727 17.502H30V0H8.94727Z" fill="#691941"/>
<path d="M0 0V17.502H8.94727L12.1348 16.5293L8.94727 15.5566L12.1348 14.584L8.94727 13.6113L12.1348 12.6387L8.94727 11.666L12.1348 10.6934L8.94727 9.7207L12.1348 8.74805L8.94727 7.77539L12.1348 6.80273L8.94727 5.83008L12.1348 4.85742L8.94727 3.88477L12.1348 2.91211L8.94727 1.93945L12.1348 0.972657L8.94727 0H0Z" fill="white"/>
</svg>
