<svg width="18" height="18" viewBox="0 0 18 18" xmlns="http://www.w3.org/2000/svg">
    <path
        d="M1.79285 12.4822L0.701802 16.1881C0.517277 16.8166 1.09655 17.4025 1.72711 17.2252L5.45024 16.1721C8.59795 17.7498 12.4198 17.2046 14.9313 14.6921C18.1349 11.4881 18.1349 6.26747 14.9313 3.06349C11.7277 -0.140483 6.2556 0.112444 3.40707 2.96093C0.558544 5.80942 0.254477 9.34393 1.79285 12.4822ZM13.7529 13.5138C11.6641 15.6034 8.447 16.0395 5.87852 14.5795C5.68497 14.4693 5.45537 14.4411 5.2409 14.5012L2.72621 15.2113L3.46279 12.7116C3.52638 12.4972 3.50113 12.2662 3.39263 12.0706C1.96434 9.50739 2.24503 6.4804 4.56584 4.15945C6.88664 1.8385 11.1862 1.67483 13.7529 4.24206C16.3196 6.80925 16.3196 10.9467 13.7529 13.5138Z"
        stroke="none" />
</svg>
    