<svg width="20" height="20" viewBox="0 0 20 20" xmlns="http://www.w3.org/2000/svg">
    <path
        d="M10 19.375C8.1458 19.375 6.33324 18.8252 4.79153 17.795C3.24982 16.7649 2.04821 15.3007 1.33863 13.5877C0.629062 11.8746 0.443406 9.98961 0.805142 8.17103C1.16688 6.35246 2.05976 4.682 3.37088 3.37088C4.682 2.05976 6.35246 1.16688 8.17103 0.805142C9.98961 0.443406 11.8746 0.629062 13.5877 1.33863C15.3007 2.04821 16.7649 3.24982 17.795 4.79153C18.8252 6.33324 19.375 8.1458 19.375 10C19.375 12.4864 18.3873 14.871 16.6291 16.6291C14.871 18.3873 12.4864 19.375 10 19.375ZM10 1.875C8.39303 1.875 6.82215 2.35153 5.486 3.24431C4.14985 4.1371 3.10845 5.40605 2.49348 6.8907C1.87852 8.37535 1.71762 10.009 2.03112 11.5851C2.34463 13.1612 3.11846 14.6089 4.25476 15.7452C5.39106 16.8816 6.8388 17.6554 8.4149 17.9689C9.99099 18.2824 11.6247 18.1215 13.1093 17.5065C14.594 16.8916 15.8629 15.8502 16.7557 14.514C17.6485 13.1779 18.125 11.607 18.125 10C18.125 7.84512 17.269 5.7785 15.7452 4.25476C14.2215 2.73103 12.1549 1.875 10 1.875Z"
        stroke="none" />
    <path
        d="M8.54384 13.7501C8.45814 13.7498 8.37342 13.7319 8.29493 13.6975C8.21644 13.6631 8.14587 13.6129 8.08759 13.5501L5.16884 10.4251C5.06911 10.3021 5.01978 10.1459 5.03082 9.9879C5.04185 9.82994 5.11243 9.68206 5.2283 9.57413C5.34416 9.4662 5.49667 9.40627 5.65501 9.40646C5.81335 9.40664 5.96573 9.46691 6.08134 9.5751L8.54384 12.2064L13.9188 6.4501C13.9728 6.38355 14.0399 6.3288 14.1159 6.28926C14.1919 6.24973 14.2753 6.22624 14.3607 6.22027C14.4462 6.2143 14.532 6.22597 14.6128 6.25455C14.6936 6.28313 14.7676 6.32802 14.8303 6.38642C14.893 6.44483 14.943 6.5155 14.9773 6.59405C15.0115 6.6726 15.0292 6.75735 15.0293 6.84304C15.0294 6.92872 15.0119 7.01351 14.9778 7.09214C14.9438 7.17077 14.8939 7.24156 14.8313 7.3001L9.00009 13.5501C8.94182 13.6129 8.87124 13.6631 8.79276 13.6975C8.71427 13.7319 8.62954 13.7498 8.54384 13.7501Z"
        stroke="none" />
</svg>
    