<svg width="16" height="16" viewBox="0 0 16 16" xmlns="http://www.w3.org/2000/svg">
    <path
        d="M14.5827 7.16797C14.0827 7.16797 13.7493 7.5013 13.7493 8.0013C13.7493 11.2513 11.166 13.8346 7.91602 13.8346C7.74935 13.8346 7.49935 13.8346 7.33268 13.8346C7.16602 13.8346 7.08268 13.8346 6.91602 13.7513C6.74935 13.7513 6.66602 13.668 6.49935 13.668C6.41602 13.668 6.33268 13.5846 6.24935 13.5846C5.66602 13.418 5.08268 13.0846 4.58268 12.7513C4.49935 12.668 4.41602 12.668 4.41602 12.5846C4.33268 12.5013 4.24935 12.418 4.16602 12.418C3.99935 12.3346 3.83268 12.168 3.74935 12.0846C3.66602 12.0013 3.66602 12.0013 3.58268 11.918L5.08268 11.668C5.49935 11.5846 5.83268 11.168 5.74935 10.668C5.66602 10.2513 5.24935 9.91797 4.74935 10.0013L1.99935 10.5013L1.33268 10.668C1.08268 10.668 0.916016 10.8346 0.832682 11.0013C0.749349 11.168 0.666016 11.418 0.666016 11.5846L1.33268 15.0846C1.41602 15.5013 1.74935 15.7513 2.16602 15.7513C2.24935 15.7513 2.24935 15.7513 2.33268 15.7513C2.74935 15.668 3.08268 15.2513 2.99935 14.7513L2.74935 13.3346C2.91602 13.5013 3.16602 13.668 3.33268 13.8346C3.33268 13.8346 3.33268 13.8346 3.41602 13.8346C3.49935 13.918 3.58268 14.0013 3.66602 14.0013C3.83268 14.168 3.99935 14.2513 4.24935 14.3346C4.41602 14.668 4.66602 14.7513 4.91602 14.918H4.99935C5.08268 15.0013 5.24935 15.0013 5.41602 15.0846C5.74935 15.168 6.08268 15.2513 6.33268 15.3346C6.49935 15.3346 6.66602 15.418 6.83268 15.418H6.91602C6.99935 15.418 7.16602 15.418 7.24935 15.418C7.41602 15.418 7.66602 15.418 7.83268 15.418C11.9993 15.418 15.3327 12.0846 15.3327 7.91797C15.416 7.5013 14.9993 7.16797 14.5827 7.16797Z"
        stroke="none" />
    <path
        d="M1.33307 8.83447C1.83307 8.83447 2.16641 8.50114 2.16641 8.00114C2.16641 4.75114 4.74974 2.1678 7.99974 2.1678C8.16641 2.1678 8.41641 2.1678 8.58307 2.1678C8.74974 2.1678 8.83307 2.1678 8.99974 2.25114C9.16641 2.25114 9.24974 2.33447 9.41641 2.33447C9.49974 2.33447 9.58307 2.4178 9.66641 2.4178C10.2497 2.58447 10.8331 2.83447 11.3331 3.25114C11.4164 3.33447 11.4997 3.33447 11.5831 3.4178C11.6664 3.50114 11.7497 3.50114 11.8331 3.58447C11.9164 3.6678 11.9997 3.83447 12.1664 3.9178C12.2497 4.00114 12.2497 4.00114 12.3331 4.08447L10.8331 4.33447C10.4164 4.4178 10.0831 4.83447 10.1664 5.33447C10.2497 5.75114 10.5831 6.00114 10.9997 6.00114C11.0831 6.00114 11.0831 6.00114 11.1664 6.00114L14.6664 5.33447C15.0831 5.25114 15.4164 4.83447 15.3331 4.33447L14.6664 0.917803C14.5831 0.501136 14.1664 0.167803 13.6664 0.251136C13.2497 0.33447 12.9164 0.751136 12.9997 1.25114L13.2497 2.6678C13.0831 2.50114 12.8331 2.25114 12.6664 2.1678C12.6664 2.1678 12.6664 2.1678 12.5831 2.1678C12.4997 2.08447 12.4164 2.00114 12.3331 2.00114C12.1664 1.83447 11.9997 1.75114 11.7497 1.58447C11.4997 1.4178 11.2497 1.33447 10.9997 1.1678H10.9164C10.8331 1.08447 10.6664 1.08447 10.4997 1.00114C10.1664 0.917803 9.83307 0.83447 9.58307 0.751136C9.41641 0.751136 9.24974 0.667803 9.08307 0.667803H8.99974C8.91641 0.667803 8.74974 0.667803 8.66641 0.667803C8.49974 0.667803 8.24974 0.667803 8.08308 0.667803C3.91641 0.667803 0.583074 4.00114 0.583074 8.1678C0.499741 8.50113 0.833075 8.83447 1.33307 8.83447Z"
        stroke="none" />
</svg>
    