<svg width="20" height="14" viewBox="0 0 20 14" xmlns="http://www.w3.org/2000/svg">
    <path fill-rule="evenodd" clip-rule="evenodd"
        d="M18.2609 13.913H1.73913C0.778696 13.913 0 13.1343 0 12.1739V1.73913C0 0.778696 0.778696 0 1.73913 0H18.2609C19.2213 0 20 0.778696 20 1.73913V12.1739C20 13.1343 19.2213 13.913 18.2609 13.913ZM0.869565 5.65217H19.1304V3.91304H0.869565V5.65217ZM19.1304 1.73913C19.1304 1.25913 18.7409 0.869565 18.2609 0.869565H1.73913C1.25913 0.869565 0.869565 1.25913 0.869565 1.73913V3.04348H19.1304V1.73913ZM19.1304 6.52174H0.869565V12.1739C0.869565 12.6539 1.25913 13.0435 1.73913 13.0435H18.2609C18.7409 13.0435 19.1304 12.6539 19.1304 12.1739V6.52174ZM10.8696 9.13043H9.13043C8.89 9.13043 8.69565 8.93609 8.69565 8.69565C8.69565 8.45565 8.89 8.26087 9.13043 8.26087H10.8696C11.11 8.26087 11.3043 8.45565 11.3043 8.69565C11.3043 8.93609 11.11 9.13043 10.8696 9.13043ZM6.95652 9.13043H3.04348C2.80304 9.13043 2.6087 8.93609 2.6087 8.69565C2.6087 8.45565 2.80304 8.26087 3.04348 8.26087H6.95652C7.19696 8.26087 7.3913 8.45565 7.3913 8.69565C7.3913 8.93609 7.19696 9.13043 6.95652 9.13043ZM3.04348 10.4348H5.65217C5.89261 10.4348 6.08696 10.6296 6.08696 10.8696C6.08696 11.11 5.89261 11.3043 5.65217 11.3043H3.04348C2.80304 11.3043 2.6087 11.11 2.6087 10.8696C2.6087 10.6296 2.80304 10.4348 3.04348 10.4348Z"
        stroke="none" />
</svg>
    