<svg width="20" height="10" viewBox="0 0 20 10" xmlns="http://www.w3.org/2000/svg">
    <path
        d="M18.5912 1.79681C18.5088 1.67899 18.3733 1.60829 18.232 1.60829H15.4936V0.441839C15.4936 0.2003 15.2934 0 15.052 0H5.12917C4.88772 0 4.6875 0.2003 4.6875 0.441839V7.58195C4.6875 7.82349 4.88772 8.02379 5.12917 8.02379H6.37762C6.60728 8.82499 7.34929 9.42 8.22084 9.42C9.0924 9.42 9.8344 8.83088 10.0641 8.02379H14.9578C15.1874 8.82499 15.9294 9.42 16.801 9.42C17.6725 9.42 18.4145 8.83088 18.6442 8.02379H19.557C19.7984 8.02379 19.9987 7.82349 19.9987 7.58195V3.94709C19.9987 3.85283 19.9692 3.76447 19.9162 3.69377L18.5912 1.79681ZM19.1212 4.0767H17.1425V2.49786H18.0082L19.1212 4.0767ZM5.57084 0.889569H14.6103V7.146H10.1053C9.93452 6.25643 9.15718 5.58484 8.22084 5.58484C7.28451 5.58484 6.50128 6.25643 6.33639 7.146H5.57084V0.889569ZM8.22084 8.53632C7.64962 8.53632 7.1844 8.07092 7.1844 7.49947C7.1844 6.92803 7.64962 6.46263 8.22084 6.46263C8.79207 6.46263 9.25729 6.92803 9.25729 7.49947C9.25729 8.07092 8.79207 8.53632 8.22084 8.53632ZM16.8069 8.53632C16.2356 8.53632 15.7704 8.07092 15.7704 7.49947C15.7704 6.92803 16.2356 6.46263 16.8069 6.46263C17.3781 6.46263 17.8433 6.92803 17.8433 7.49947C17.8433 8.07092 17.3781 8.53632 16.8069 8.53632ZM18.6913 7.146C18.5205 6.25643 17.7432 5.58484 16.8069 5.58484C16.3004 5.58484 15.8352 5.78514 15.4936 6.10916V2.49786H16.2533V4.51854C16.2533 4.76008 16.4535 4.96038 16.695 4.96038H19.1271V7.146H18.6913Z"
        stroke="none" />
    <path
        d="M0.441668 0.89149H3.59223C3.83368 0.89149 4.0339 0.69119 4.0339 0.449651C4.0339 0.208113 3.83368 0.0078125 3.59223 0.0078125H0.441668C0.200223 0.0078125 0 0.208113 0 0.449651C0 0.69119 0.200223 0.89149 0.441668 0.89149Z"
        stroke="none" />
    <path
        d="M3.59837 1.62109H1.17214C0.930692 1.62109 0.730469 1.82139 0.730469 2.06293C0.730469 2.30447 0.930692 2.50477 1.17214 2.50477H3.59837C3.83981 2.50477 4.04003 2.30447 4.04003 2.06293C4.04003 1.82139 3.8457 1.62109 3.59837 1.62109Z"
        stroke="none" />
    <path
        d="M3.58997 3.21875H2.05886C1.81741 3.21875 1.61719 3.41905 1.61719 3.66059C1.61719 3.90213 1.81741 4.10243 2.05886 4.10243H3.58997C3.83142 4.10243 4.03164 3.90213 4.03164 3.66059C4.03164 3.41905 3.83731 3.21875 3.58997 3.21875Z"
        stroke="none" />
    <path
        d="M3.58886 4.83203H3.05886C2.81741 4.83203 2.61719 5.03233 2.61719 5.27387C2.61719 5.51541 2.81741 5.71571 3.05886 5.71571H3.58886C3.8303 5.71571 4.03052 5.51541 4.03052 5.27387C4.03052 5.03233 3.83619 4.83203 3.58886 4.83203Z"
        stroke="none" />
</svg>
    