<svg width="18" height="18" viewBox="0 0 18 18" xmlns="http://www.w3.org/2000/svg">
    <path
        d="M17.5683 16.6831L13.5058 12.6206H13.462C14.7142 11.1442 15.347 9.24082 15.228 7.30858C15.109 5.37634 14.2475 3.56495 12.8237 2.25332C11.3998 0.941688 9.52395 0.231426 7.58845 0.271109C5.65296 0.310791 3.80778 1.09734 2.43889 2.46623C1.07 3.83512 0.283447 5.6803 0.243765 7.6158C0.204083 9.55129 0.914344 11.4272 2.22597 12.851C3.53761 14.2749 5.349 15.1364 7.28124 15.2554C9.21348 15.3743 11.1169 14.7416 12.5933 13.4894C12.5933 13.4894 12.5933 13.5206 12.5933 13.5331L16.6558 17.5956C16.7139 17.6542 16.783 17.7007 16.8592 17.7324C16.9353 17.7642 17.017 17.7805 17.0995 17.7805C17.1821 17.7805 17.2637 17.7642 17.3399 17.7324C17.4161 17.7007 17.4852 17.6542 17.5433 17.5956C17.6074 17.5389 17.6591 17.4696 17.6953 17.3921C17.7315 17.3145 17.7514 17.2304 17.7537 17.1448C17.7561 17.0593 17.7408 16.9741 17.7089 16.8947C17.677 16.8153 17.6292 16.7433 17.5683 16.6831ZM7.74955 14.0019C6.51341 14.0019 5.30504 13.6353 4.27723 12.9486C3.24942 12.2618 2.44835 11.2857 1.9753 10.1437C1.50225 9.00162 1.37848 7.74496 1.61964 6.53258C1.8608 5.32019 2.45605 4.20655 3.33013 3.33247C4.20421 2.45839 5.31785 1.86314 6.53023 1.62198C7.74261 1.38082 8.99928 1.5046 10.1413 1.97764C11.2834 2.45069 12.2595 3.25177 12.9462 4.27958C13.633 5.30738 13.9995 6.51576 13.9995 7.75189C13.9995 8.57265 13.8379 9.38538 13.5238 10.1437C13.2097 10.9019 12.7493 11.5909 12.169 12.1713C11.5886 12.7517 10.8996 13.212 10.1413 13.5261C9.38303 13.8402 8.57031 14.0019 7.74955 14.0019Z"
        stroke="none" />
</svg>
    