<svg width="125" height="36" viewBox="0 0 125 36" fill="none" xmlns="http://www.w3.org/2000/svg">
    <path
        d="M5.26213 27.968C4.40879 27.968 3.63546 27.808 2.94213 27.488C2.25946 27.1787 1.71546 26.7413 1.31013 26.176C0.915458 25.6213 0.718125 24.9867 0.718125 24.272C0.718125 24.048 0.734125 23.7547 0.766125 23.392C0.808792 23.0187 0.856792 22.608 0.910125 22.16C0.974125 21.712 1.04346 21.2587 1.11813 20.8C1.19279 20.3307 1.26213 19.888 1.32613 19.472L2.67013 19.68C2.55279 20.4053 2.45146 21.0827 2.36613 21.712C2.28079 22.3307 2.21146 22.8587 2.15813 23.296C2.11546 23.7333 2.09413 24.0587 2.09413 24.272C2.09413 24.752 2.22213 25.1733 2.47813 25.536C2.74479 25.9093 3.11813 26.2027 3.59813 26.416C4.07813 26.6293 4.63279 26.736 5.26213 26.736C5.89146 26.736 6.43013 26.6347 6.87813 26.432C7.32613 26.24 7.66746 25.9627 7.90213 25.6C8.13679 25.248 8.25413 24.8373 8.25413 24.368V16H9.61413V24.368C9.61413 25.1147 9.41679 25.7547 9.02213 26.288C8.63813 26.832 8.11546 27.248 7.45413 27.536C6.80346 27.824 6.07279 27.968 5.26213 27.968ZM9.61413 24V22.768H17.8701L16.6381 23.872V20.176C16.6381 19.5147 16.5421 18.9707 16.3501 18.544C16.1688 18.1067 15.8968 17.7813 15.5341 17.568C15.1821 17.344 14.7395 17.232 14.2061 17.232C13.7368 17.232 13.2995 17.312 12.8941 17.472C12.4888 17.632 12.1155 17.84 11.7741 18.096C11.4328 18.352 11.1128 18.6347 10.8141 18.944C10.5261 19.2427 10.2595 19.5467 10.0141 19.856C9.76879 20.1653 9.55013 20.448 9.35813 20.704L8.92613 19.504C9.21413 19.152 9.49679 18.8053 9.77413 18.464C10.0621 18.1227 10.3555 17.8027 10.6541 17.504C10.9528 17.2053 11.2781 16.944 11.6301 16.72C11.9821 16.496 12.3661 16.32 12.7821 16.192C13.2088 16.064 13.6888 16 14.2221 16C14.9795 16 15.5981 16.128 16.0781 16.384C16.5688 16.6293 16.9528 16.9653 17.2301 17.392C17.5075 17.808 17.6995 18.2613 17.8061 18.752C17.9235 19.232 17.9821 19.7067 17.9821 20.176V24H9.61413ZM12.6061 14.576V13.088H13.9821V14.576H12.6061ZM22.0675 24V22.768H24.0035V24H22.0675ZM20.7075 24V12.544H22.0675V24H20.7075ZM24.0035 24V22.768C24.0675 22.768 24.1208 22.784 24.1635 22.816C24.2062 22.8373 24.2382 22.8747 24.2595 22.928C24.2808 22.9813 24.2968 23.0453 24.3075 23.12C24.3182 23.1947 24.3235 23.28 24.3235 23.376C24.3235 23.472 24.3182 23.5627 24.3075 23.648C24.2968 23.7227 24.2808 23.7867 24.2595 23.84C24.2382 23.8933 24.2062 23.936 24.1635 23.968C24.1208 23.9893 24.0675 24 24.0035 24ZM24 24V22.768H26.512L25.84 23.312V16H27.216V24H24ZM24 24C23.936 24 23.8827 23.9893 23.84 23.968C23.7973 23.936 23.7653 23.8933 23.744 23.84C23.7227 23.7867 23.7067 23.7227 23.696 23.648C23.6853 23.5627 23.68 23.472 23.68 23.376C23.68 23.248 23.6907 23.1413 23.712 23.056C23.7227 22.9707 23.7547 22.9013 23.808 22.848C23.8507 22.7947 23.9147 22.768 24 22.768V24ZM24.64 26.96V25.472H26V26.96H24.64ZM26.928 26.96V25.472H28.288V26.96H26.928ZM32.63 24V22.768H34.678V24H32.63ZM29.958 27.6C29.8193 27.6 29.6753 27.5893 29.526 27.568C29.366 27.5573 29.2113 27.5467 29.062 27.536L29.19 26.304C29.3393 26.3147 29.4833 26.3253 29.622 26.336C29.75 26.3573 29.862 26.368 29.958 26.368C30.4487 26.368 30.8433 26.1813 31.142 25.808C31.4407 25.4347 31.59 24.9173 31.59 24.256V16H32.966V24.256C32.966 24.9173 32.838 25.4987 32.582 26C32.326 26.512 31.9687 26.9067 31.51 27.184C31.062 27.4613 30.5447 27.6 29.958 27.6ZM34.678 24V22.768C34.742 22.768 34.7953 22.784 34.838 22.816C34.8807 22.8373 34.9127 22.8747 34.934 22.928C34.9553 22.9813 34.9713 23.0453 34.982 23.12C34.9927 23.1947 34.998 23.28 34.998 23.376C34.998 23.472 34.9927 23.5627 34.982 23.648C34.9713 23.7227 34.9553 23.7867 34.934 23.84C34.9127 23.8933 34.8807 23.936 34.838 23.968C34.7953 23.9893 34.742 24 34.678 24ZM36.5919 24V12.544H37.9679V24H36.5919ZM34.6719 24V22.768H36.5919V24H34.6719ZM34.6719 24C34.6079 24 34.5545 23.9893 34.5119 23.968C34.4692 23.936 34.4372 23.8933 34.4159 23.84C34.3945 23.7867 34.3785 23.7227 34.3679 23.648C34.3572 23.5627 34.3519 23.472 34.3519 23.376C34.3519 23.248 34.3625 23.1413 34.3839 23.056C34.3945 22.9707 34.4265 22.9013 34.4799 22.848C34.5225 22.7947 34.5865 22.768 34.6719 22.768V24ZM40.6919 24V12.544H42.0519V24H40.6919ZM49.9738 24V22.768H52.0218V24H49.9738ZM47.3018 27.6C47.1631 27.6 47.0191 27.5893 46.8697 27.568C46.7097 27.5573 46.5551 27.5467 46.4057 27.536L46.5337 26.304C46.6831 26.3147 46.8271 26.3253 46.9657 26.336C47.0938 26.3573 47.2058 26.368 47.3018 26.368C47.7924 26.368 48.1871 26.1813 48.4858 25.808C48.7844 25.4347 48.9338 24.9173 48.9338 24.256V16H50.3098V24.256C50.3098 24.9173 50.1818 25.4987 49.9258 26C49.6698 26.512 49.3124 26.9067 48.8538 27.184C48.4058 27.4613 47.8884 27.6 47.3018 27.6ZM52.0218 24V22.768C52.0858 22.768 52.1391 22.784 52.1818 22.816C52.2244 22.8373 52.2564 22.8747 52.2778 22.928C52.2991 22.9813 52.3151 23.0453 52.3258 23.12C52.3364 23.1947 52.3418 23.28 52.3418 23.376C52.3418 23.472 52.3364 23.5627 52.3258 23.648C52.3151 23.7227 52.2991 23.7867 52.2778 23.84C52.2564 23.8933 52.2244 23.936 52.1818 23.968C52.1391 23.9893 52.0858 24 52.0218 24ZM59.9836 24V22.768H61.7116V24H59.9836ZM52.0156 24C51.9516 24 51.8983 23.9893 51.8556 23.968C51.813 23.936 51.781 23.8933 51.7596 23.84C51.7383 23.7867 51.7223 23.7227 51.7116 23.648C51.701 23.5627 51.6956 23.472 51.6956 23.376C51.6956 23.248 51.7063 23.1413 51.7276 23.056C51.7383 22.9707 51.7703 22.9013 51.8236 22.848C51.8663 22.7947 51.9303 22.768 52.0156 22.768V24ZM52.0156 24V22.768H59.0396L58.6236 23.136V19.312C58.6236 18.6187 58.405 18.1013 57.9676 17.76C57.541 17.4187 56.8903 17.248 56.0156 17.248C55.7383 17.248 55.3436 17.2747 54.8316 17.328C54.3303 17.3707 53.797 17.4293 53.2316 17.504L53.0716 16.4C53.509 16.2933 53.9836 16.2027 54.4956 16.128C55.0183 16.0427 55.525 16 56.0156 16C56.8263 16 57.5303 16.128 58.1276 16.384C58.725 16.64 59.1836 17.0133 59.5036 17.504C59.8236 17.9947 59.9836 18.5973 59.9836 19.312V24H52.0156ZM61.7116 24V22.768C61.7756 22.768 61.829 22.784 61.8716 22.816C61.9143 22.8373 61.9463 22.8747 61.9676 22.928C61.989 22.9813 62.005 23.0453 62.0156 23.12C62.0263 23.1947 62.0316 23.28 62.0316 23.376C62.0316 23.472 62.0263 23.5627 62.0156 23.648C62.005 23.7227 61.989 23.7867 61.9676 23.84C61.9463 23.8933 61.9143 23.936 61.8716 23.968C61.829 23.9893 61.7756 24 61.7116 24ZM55.3596 26.96V25.472H56.7356V26.96H55.3596ZM64.9348 24V22.768H66.6948V24H64.9348ZM66.6948 24V22.768C66.7588 22.768 66.8121 22.784 66.8548 22.816C66.8974 22.8373 66.9294 22.8747 66.9508 22.928C66.9721 22.9813 66.9881 23.0453 66.9988 23.12C67.0094 23.1947 67.0148 23.28 67.0148 23.376C67.0148 23.472 67.0094 23.5627 66.9988 23.648C66.9881 23.7227 66.9721 23.7867 66.9508 23.84C66.9294 23.8933 66.8974 23.936 66.8548 23.968C66.8121 23.9893 66.7588 24 66.6948 24ZM61.7188 24C61.6547 24 61.6014 23.9893 61.5587 23.968C61.5161 23.936 61.4841 23.8933 61.4627 23.84C61.4414 23.7867 61.4254 23.7227 61.4147 23.648C61.4041 23.5627 61.3987 23.472 61.3987 23.376C61.3987 23.248 61.4094 23.1413 61.4307 23.056C61.4414 22.9707 61.4734 22.9013 61.5267 22.848C61.5694 22.7947 61.6334 22.768 61.7188 22.768V24ZM61.7188 24V22.768H64.2308L63.5588 23.312V16H64.9348V24H61.7188ZM62.4388 14.56V13.072H63.7988V14.56H62.4388ZM64.7268 14.56V13.072H66.0868V14.56H64.7268ZM66.6875 24V22.768H75.3755L74.4475 23.44V20.08C74.4475 19.3547 74.3622 18.784 74.1915 18.368C74.0315 17.952 73.7488 17.6587 73.3435 17.488C72.9488 17.3173 72.4102 17.232 71.7275 17.232C71.2795 17.232 70.8368 17.264 70.3995 17.328C69.9622 17.3813 69.6208 17.4613 69.3755 17.568L70.2075 16.736C70.1435 16.992 70.0795 17.3173 70.0155 17.712C69.9515 18.096 69.8982 18.512 69.8555 18.96C69.8128 19.3973 69.7915 19.8347 69.7915 20.272C69.7915 20.72 69.8128 21.1627 69.8555 21.6C69.8982 22.0373 69.9462 22.416 69.9995 22.736C70.0528 23.0453 70.0955 23.264 70.1275 23.392L68.8315 23.76C68.7888 23.6213 68.7355 23.3813 68.6715 23.04C68.6075 22.6987 68.5488 22.288 68.4955 21.808C68.4528 21.328 68.4315 20.816 68.4315 20.272C68.4315 19.7493 68.4582 19.2427 68.5115 18.752C68.5648 18.2507 68.6235 17.7973 68.6875 17.392C68.7622 16.9867 68.8315 16.6613 68.8955 16.416C69.1302 16.32 69.5035 16.224 70.0155 16.128C70.5382 16.032 71.1088 15.984 71.7275 15.984C72.6342 15.984 73.3915 16.1173 73.9995 16.384C74.6075 16.6507 75.0608 17.0827 75.3595 17.68C75.6582 18.2773 75.8075 19.0773 75.8075 20.08V24H66.6875ZM66.6875 24C66.6235 24 66.5702 23.9893 66.5275 23.968C66.4848 23.936 66.4528 23.8933 66.4315 23.84C66.4102 23.7867 66.3942 23.7227 66.3835 23.648C66.3728 23.5627 66.3675 23.472 66.3675 23.376C66.3675 23.248 66.3782 23.1413 66.3995 23.056C66.4102 22.9707 66.4422 22.9013 66.4955 22.848C66.5382 22.7947 66.6022 22.768 66.6875 22.768V24Z"
        fill="black" />
    <g clip-path="url(#clip0_15528_30693)">
        <path
            d="M125 18C125.001 21.5511 123.952 25.0232 121.984 27.979C120.016 30.9348 117.217 33.2422 113.94 34.6105C110.663 35.9789 107.055 36.347 103.569 35.6686C100.083 34.9902 96.8764 33.2955 94.352 30.798C91.0255 27.5164 89.1074 23.0685 89.0044 18.3969C88.9013 13.7252 90.6214 9.19707 93.8 5.772C94.5298 4.97405 95.3334 4.24682 96.2 3.6C99.3157 1.2632 103.105 0 107 0C110.895 0 114.684 1.2632 117.8 3.6C118.667 4.24682 119.47 4.97405 120.2 5.772C123.292 9.09246 125.007 13.463 125 18Z"
            fill="#6727AB" />
        <path
            d="M123.2 12.5996L119.648 30.7976C116.282 34.1302 111.737 35.9996 107 35.9996C102.263 35.9996 97.7181 34.1302 94.352 30.7976L90.8 12.5996L93.8 9.93561V3.59961H120.2V9.93561L123.2 12.5996Z"
            fill="#AC74E7" />
        <path d="M120.2 3.59961H93.8V12.5996H120.2V3.59961Z" fill="#8C51CB" />
        <path d="M93.8 3.59961V11.9996L96.2 7.79961L93.8 3.59961Z" fill="#7F3FC4" />
        <path d="M120.2 3.59961V11.9996L117.8 7.79961L120.2 3.59961Z" fill="#7F3FC4" />
        <path d="M96.2 7.7998V12.5998H90.8L96.2 7.7998Z" fill="#BC8AF1" />
        <path d="M117.8 7.7998V12.5998H123.2L117.8 7.7998Z" fill="#BC8AF1" />
        <path
            d="M97.4 18.6002C98.0627 18.6002 98.6 18.0629 98.6 17.4002C98.6 16.7375 98.0627 16.2002 97.4 16.2002C96.7372 16.2002 96.2 16.7375 96.2 17.4002C96.2 18.0629 96.7372 18.6002 97.4 18.6002Z"
            fill="black" />
        <path
            d="M117.2 18.6002C117.863 18.6002 118.4 18.0629 118.4 17.4002C118.4 16.7375 117.863 16.2002 117.2 16.2002C116.537 16.2002 116 16.7375 116 17.4002C116 18.0629 116.537 18.6002 117.2 18.6002Z"
            fill="black" />
        <path
            d="M117.2 18.5996V19.2703C117.2 25.1959 112.902 29.9996 107.6 29.9996H107C101.698 29.9996 97.3999 25.1959 97.3999 19.2703V18.5996"
            stroke="#8C51CB" stroke-width="1.58578" stroke-miterlimit="10" stroke-linecap="round" />
        <path
            d="M117.2 17.4004V18.0005C117.2 20.5465 116.188 22.9883 114.388 24.7887C112.588 26.589 110.146 27.6005 107.6 27.6005H107C104.454 27.6005 102.012 26.589 100.212 24.7887C98.4113 22.9883 97.3999 20.5465 97.3999 18.0005V17.4004"
            stroke="#6727AB" stroke-width="1.5" stroke-miterlimit="10" stroke-linecap="round" />
    </g>
    <defs>
        <clipPath id="clip0_15528_30693">
            <rect width="36" height="36" fill="white" transform="translate(89)" />
        </clipPath>
    </defs>
</svg>
    