<svg width="60" height="60" viewBox="0 0 60 60" fill="none" xmlns="http://www.w3.org/2000/svg">
    <g clip-path="url(#clip0_9346_66259)">
        <path
            d="M60 30C60.0022 35.9185 58.2531 41.7053 54.973 46.6316C51.6928 51.558 47.0283 55.4036 41.5669 57.6842C36.1055 59.9648 30.0913 60.5784 24.2819 59.4476C18.4724 58.3169 13.1274 55.4925 8.92002 51.33C3.37577 45.8607 0.179031 38.4475 0.00729378 30.6614C-0.164443 22.8754 2.70232 15.3284 8.00002 9.62C9.2164 8.29008 10.5557 7.07803 12 6C17.1929 2.10534 23.5089 0 30 0C36.4911 0 42.8071 2.10534 48 6C49.4444 7.07803 50.7836 8.29008 52 9.62C57.1529 15.1541 60.0123 22.4383 60 30Z"
            fill="#1FC5DE" />
        <path
            d="M57 21L51.08 51.33C45.47 56.8843 37.8945 60 30 60C22.1055 60 14.53 56.8843 8.92 51.33L3 21L8 16.56V6H52V16.56L57 21Z"
            fill="#73E3FC" />
        <path d="M52 6H8V21H52V6Z" fill="#6BCEE5" />
        <path d="M8 6V20L12 13L8 6Z" fill="#4EAABE" />
        <path d="M52 6V20L48 13L52 6Z" fill="#4EAABE" />
        <path d="M12 13V21H3L12 13Z" fill="#A1EDFE" />
        <path d="M48 13V21H57L48 13Z" fill="#A1EDFE" />
        <path
            d="M14 31C15.1046 31 16 30.1046 16 29C16 27.8954 15.1046 27 14 27C12.8954 27 12 27.8954 12 29C12 30.1046 12.8954 31 14 31Z"
            fill="black" />
        <path
            d="M47 31C48.1046 31 49 30.1046 49 29C49 27.8954 48.1046 27 47 27C45.8954 27 45 27.8954 45 29C45 30.1046 45.8954 31 47 31Z"
            fill="black" />
        <path d="M47 31V32.1178C47 41.9939 39.8366 50 31 50H30C21.1634 50 14 41.9939 14 32.1178V31"
            stroke="#6BCEE5" stroke-width="1.58578" stroke-miterlimit="10" stroke-linecap="round" />
        <path
            d="M47 29V30.0001C47 34.2436 45.3143 38.3133 42.3137 41.3138C39.3131 44.3144 35.2435 46.0001 31 46.0001H30C25.7565 46.0001 21.6869 44.3144 18.6863 41.3138C15.6857 38.3133 14 34.2436 14 30.0001V29"
            stroke="#1FC5DE" stroke-width="1.5" stroke-miterlimit="10" stroke-linecap="round" />
    </g>
    <defs>
        <clipPath id="clip0_9346_66259">
            <rect width="60" height="60" fill="white" />
        </clipPath>
    </defs>
</svg>