<svg width="77" height="62" viewBox="0 0 77 62" fill="none" xmlns="http://www.w3.org/2000/svg">
    <g clip-path="url(#clip0_15528_29759)">
        <path
            d="M57 18C57.0013 21.5511 55.9519 25.0232 53.9838 27.979C52.0157 30.9348 49.217 33.2422 45.9401 34.6105C42.6633 35.9789 39.0548 36.347 35.5691 35.6686C32.0834 34.9902 28.8764 33.2955 26.352 30.798C23.0255 27.5164 21.1074 23.0685 21.0044 18.3969C20.9013 13.7252 22.6214 9.19707 25.8 5.772C26.5298 4.97405 27.3334 4.24682 28.2 3.6C31.3157 1.2632 35.1053 0 39 0C42.8947 0 46.6843 1.2632 49.8 3.6C50.6666 4.24682 51.4702 4.97405 52.2 5.772C55.2918 9.09246 57.0074 13.463 57 18Z"
            fill="#6727AB" />
        <path
            d="M55.2001 12.6001L51.6481 30.7981C48.282 34.1307 43.7367 36.0001 39 36.0001C34.2634 36.0001 29.7181 34.1307 26.352 30.7981L22.8 12.6001L25.8 9.9361V3.6001H52.2001V9.9361L55.2001 12.6001Z"
            fill="#AC74E7" />
        <path d="M52.2 3.6001H25.8V12.6001H52.2V3.6001Z" fill="#8C51CB" />
        <path d="M25.8 3.6001V12.0001L28.2 7.8001L25.8 3.6001Z" fill="#7F3FC4" />
        <path d="M52.2 3.6001V12.0001L49.8 7.8001L52.2 3.6001Z" fill="#7F3FC4" />
        <path d="M28.2 7.7998V12.5998H22.8L28.2 7.7998Z" fill="#BC8AF1" />
        <path d="M49.8 7.7998V12.5998H55.2L49.8 7.7998Z" fill="#BC8AF1" />
        <path
            d="M29.4 18.6002C30.0627 18.6002 30.6 18.0629 30.6 17.4002C30.6 16.7375 30.0627 16.2002 29.4 16.2002C28.7372 16.2002 28.2 16.7375 28.2 17.4002C28.2 18.0629 28.7372 18.6002 29.4 18.6002Z"
            fill="black" />
        <path
            d="M49.2 18.6002C49.8627 18.6002 50.4 18.0629 50.4 17.4002C50.4 16.7375 49.8627 16.2002 49.2 16.2002C48.5373 16.2002 48 16.7375 48 17.4002C48 18.0629 48.5373 18.6002 49.2 18.6002Z"
            fill="black" />
        <path
            d="M49.2 18.6001V19.2708C49.2 25.1964 44.902 30.0001 39.6 30.0001H39C33.6981 30.0001 29.4 25.1964 29.4 19.2708V18.6001"
            stroke="#8C51CB" stroke-width="1.58578" stroke-miterlimit="10" stroke-linecap="round" />
        <path
            d="M49.2 17.3999V18C49.2 20.5461 48.1886 22.9879 46.3882 24.7882C44.5879 26.5886 42.1461 27.6 39.6 27.6H39C36.4539 27.6 34.0121 26.5886 32.2118 24.7882C30.4114 22.9879 29.4 20.5461 29.4 18V17.3999"
            stroke="#6727AB" stroke-width="1.5" stroke-miterlimit="10" stroke-linecap="round" />
    </g>
    <path
        d="M5.26213 61.968C4.40879 61.968 3.63546 61.808 2.94213 61.488C2.25946 61.1787 1.71546 60.7413 1.31013 60.176C0.915458 59.6213 0.718125 58.9867 0.718125 58.272C0.718125 58.048 0.734125 57.7547 0.766125 57.392C0.808792 57.0187 0.856792 56.608 0.910125 56.16C0.974125 55.712 1.04346 55.2587 1.11813 54.8C1.19279 54.3307 1.26213 53.888 1.32613 53.472L2.67013 53.68C2.55279 54.4053 2.45146 55.0827 2.36613 55.712C2.28079 56.3307 2.21146 56.8587 2.15813 57.296C2.11546 57.7333 2.09413 58.0587 2.09413 58.272C2.09413 58.752 2.22213 59.1733 2.47813 59.536C2.74479 59.9093 3.11813 60.2027 3.59813 60.416C4.07813 60.6293 4.63279 60.736 5.26213 60.736C5.89146 60.736 6.43013 60.6347 6.87813 60.432C7.32613 60.24 7.66746 59.9627 7.90213 59.6C8.13679 59.248 8.25413 58.8373 8.25413 58.368V50H9.61413V58.368C9.61413 59.1147 9.41679 59.7547 9.02213 60.288C8.63813 60.832 8.11546 61.248 7.45413 61.536C6.80346 61.824 6.07279 61.968 5.26213 61.968ZM9.61413 58V56.768H17.8701L16.6381 57.872V54.176C16.6381 53.5147 16.5421 52.9707 16.3501 52.544C16.1688 52.1067 15.8968 51.7813 15.5341 51.568C15.1821 51.344 14.7395 51.232 14.2061 51.232C13.7368 51.232 13.2995 51.312 12.8941 51.472C12.4888 51.632 12.1155 51.84 11.7741 52.096C11.4328 52.352 11.1128 52.6347 10.8141 52.944C10.5261 53.2427 10.2595 53.5467 10.0141 53.856C9.76879 54.1653 9.55013 54.448 9.35813 54.704L8.92613 53.504C9.21413 53.152 9.49679 52.8053 9.77413 52.464C10.0621 52.1227 10.3555 51.8027 10.6541 51.504C10.9528 51.2053 11.2781 50.944 11.6301 50.72C11.9821 50.496 12.3661 50.32 12.7821 50.192C13.2088 50.064 13.6888 50 14.2221 50C14.9795 50 15.5981 50.128 16.0781 50.384C16.5688 50.6293 16.9528 50.9653 17.2301 51.392C17.5075 51.808 17.6995 52.2613 17.8061 52.752C17.9235 53.232 17.9821 53.7067 17.9821 54.176V58H9.61413ZM12.6061 48.576V47.088H13.9821V48.576H12.6061ZM22.0675 58V56.768H24.0035V58H22.0675ZM20.7075 58V46.544H22.0675V58H20.7075ZM24.0035 58V56.768C24.0675 56.768 24.1208 56.784 24.1635 56.816C24.2062 56.8373 24.2382 56.8747 24.2595 56.928C24.2808 56.9813 24.2968 57.0453 24.3075 57.12C24.3182 57.1947 24.3235 57.28 24.3235 57.376C24.3235 57.472 24.3182 57.5627 24.3075 57.648C24.2968 57.7227 24.2808 57.7867 24.2595 57.84C24.2382 57.8933 24.2062 57.936 24.1635 57.968C24.1208 57.9893 24.0675 58 24.0035 58ZM24 58V56.768H26.512L25.84 57.312V50H27.216V58H24ZM24 58C23.936 58 23.8827 57.9893 23.84 57.968C23.7973 57.936 23.7653 57.8933 23.744 57.84C23.7227 57.7867 23.7067 57.7227 23.696 57.648C23.6853 57.5627 23.68 57.472 23.68 57.376C23.68 57.248 23.6907 57.1413 23.712 57.056C23.7227 56.9707 23.7547 56.9013 23.808 56.848C23.8507 56.7947 23.9147 56.768 24 56.768V58ZM24.64 60.96V59.472H26V60.96H24.64ZM26.928 60.96V59.472H28.288V60.96H26.928ZM32.63 58V56.768H34.678V58H32.63ZM29.958 61.6C29.8193 61.6 29.6753 61.5893 29.526 61.568C29.366 61.5573 29.2113 61.5467 29.062 61.536L29.19 60.304C29.3393 60.3147 29.4833 60.3253 29.622 60.336C29.75 60.3573 29.862 60.368 29.958 60.368C30.4487 60.368 30.8433 60.1813 31.142 59.808C31.4407 59.4347 31.59 58.9173 31.59 58.256V50H32.966V58.256C32.966 58.9173 32.838 59.4987 32.582 60C32.326 60.512 31.9687 60.9067 31.51 61.184C31.062 61.4613 30.5447 61.6 29.958 61.6ZM34.678 58V56.768C34.742 56.768 34.7953 56.784 34.838 56.816C34.8807 56.8373 34.9127 56.8747 34.934 56.928C34.9553 56.9813 34.9713 57.0453 34.982 57.12C34.9927 57.1947 34.998 57.28 34.998 57.376C34.998 57.472 34.9927 57.5627 34.982 57.648C34.9713 57.7227 34.9553 57.7867 34.934 57.84C34.9127 57.8933 34.8807 57.936 34.838 57.968C34.7953 57.9893 34.742 58 34.678 58ZM36.5919 58V46.544H37.9679V58H36.5919ZM34.6719 58V56.768H36.5919V58H34.6719ZM34.6719 58C34.6079 58 34.5545 57.9893 34.5119 57.968C34.4692 57.936 34.4372 57.8933 34.4159 57.84C34.3945 57.7867 34.3785 57.7227 34.3679 57.648C34.3572 57.5627 34.3519 57.472 34.3519 57.376C34.3519 57.248 34.3625 57.1413 34.3839 57.056C34.3945 56.9707 34.4265 56.9013 34.4799 56.848C34.5225 56.7947 34.5865 56.768 34.6719 56.768V58ZM40.6919 58V46.544H42.0519V58H40.6919ZM49.9738 58V56.768H52.0218V58H49.9738ZM47.3018 61.6C47.1631 61.6 47.0191 61.5893 46.8697 61.568C46.7097 61.5573 46.5551 61.5467 46.4057 61.536L46.5337 60.304C46.6831 60.3147 46.8271 60.3253 46.9657 60.336C47.0938 60.3573 47.2058 60.368 47.3018 60.368C47.7924 60.368 48.1871 60.1813 48.4858 59.808C48.7844 59.4347 48.9338 58.9173 48.9338 58.256V50H50.3098V58.256C50.3098 58.9173 50.1818 59.4987 49.9258 60C49.6698 60.512 49.3124 60.9067 48.8538 61.184C48.4058 61.4613 47.8884 61.6 47.3018 61.6ZM52.0218 58V56.768C52.0858 56.768 52.1391 56.784 52.1818 56.816C52.2244 56.8373 52.2564 56.8747 52.2778 56.928C52.2991 56.9813 52.3151 57.0453 52.3258 57.12C52.3364 57.1947 52.3418 57.28 52.3418 57.376C52.3418 57.472 52.3364 57.5627 52.3258 57.648C52.3151 57.7227 52.2991 57.7867 52.2778 57.84C52.2564 57.8933 52.2244 57.936 52.1818 57.968C52.1391 57.9893 52.0858 58 52.0218 58ZM59.9836 58V56.768H61.7116V58H59.9836ZM52.0156 58C51.9516 58 51.8983 57.9893 51.8556 57.968C51.813 57.936 51.781 57.8933 51.7596 57.84C51.7383 57.7867 51.7223 57.7227 51.7116 57.648C51.701 57.5627 51.6956 57.472 51.6956 57.376C51.6956 57.248 51.7063 57.1413 51.7276 57.056C51.7383 56.9707 51.7703 56.9013 51.8236 56.848C51.8663 56.7947 51.9303 56.768 52.0156 56.768V58ZM52.0156 58V56.768H59.0396L58.6236 57.136V53.312C58.6236 52.6187 58.405 52.1013 57.9676 51.76C57.541 51.4187 56.8903 51.248 56.0156 51.248C55.7383 51.248 55.3436 51.2747 54.8316 51.328C54.3303 51.3707 53.797 51.4293 53.2316 51.504L53.0716 50.4C53.509 50.2933 53.9836 50.2027 54.4956 50.128C55.0183 50.0427 55.525 50 56.0156 50C56.8263 50 57.5303 50.128 58.1276 50.384C58.725 50.64 59.1836 51.0133 59.5036 51.504C59.8236 51.9947 59.9836 52.5973 59.9836 53.312V58H52.0156ZM61.7116 58V56.768C61.7756 56.768 61.829 56.784 61.8716 56.816C61.9143 56.8373 61.9463 56.8747 61.9676 56.928C61.989 56.9813 62.005 57.0453 62.0156 57.12C62.0263 57.1947 62.0316 57.28 62.0316 57.376C62.0316 57.472 62.0263 57.5627 62.0156 57.648C62.005 57.7227 61.989 57.7867 61.9676 57.84C61.9463 57.8933 61.9143 57.936 61.8716 57.968C61.829 57.9893 61.7756 58 61.7116 58ZM55.3596 60.96V59.472H56.7356V60.96H55.3596ZM64.9348 58V56.768H66.6948V58H64.9348ZM66.6948 58V56.768C66.7588 56.768 66.8121 56.784 66.8548 56.816C66.8974 56.8373 66.9294 56.8747 66.9508 56.928C66.9721 56.9813 66.9881 57.0453 66.9988 57.12C67.0094 57.1947 67.0148 57.28 67.0148 57.376C67.0148 57.472 67.0094 57.5627 66.9988 57.648C66.9881 57.7227 66.9721 57.7867 66.9508 57.84C66.9294 57.8933 66.8974 57.936 66.8548 57.968C66.8121 57.9893 66.7588 58 66.6948 58ZM61.7188 58C61.6547 58 61.6014 57.9893 61.5587 57.968C61.5161 57.936 61.4841 57.8933 61.4627 57.84C61.4414 57.7867 61.4254 57.7227 61.4147 57.648C61.4041 57.5627 61.3987 57.472 61.3987 57.376C61.3987 57.248 61.4094 57.1413 61.4307 57.056C61.4414 56.9707 61.4734 56.9013 61.5267 56.848C61.5694 56.7947 61.6334 56.768 61.7188 56.768V58ZM61.7188 58V56.768H64.2308L63.5588 57.312V50H64.9348V58H61.7188ZM62.4388 48.56V47.072H63.7988V48.56H62.4388ZM64.7268 48.56V47.072H66.0868V48.56H64.7268ZM66.6875 58V56.768H75.3755L74.4475 57.44V54.08C74.4475 53.3547 74.3622 52.784 74.1915 52.368C74.0315 51.952 73.7488 51.6587 73.3435 51.488C72.9488 51.3173 72.4102 51.232 71.7275 51.232C71.2795 51.232 70.8368 51.264 70.3995 51.328C69.9622 51.3813 69.6208 51.4613 69.3755 51.568L70.2075 50.736C70.1435 50.992 70.0795 51.3173 70.0155 51.712C69.9515 52.096 69.8982 52.512 69.8555 52.96C69.8128 53.3973 69.7915 53.8347 69.7915 54.272C69.7915 54.72 69.8128 55.1627 69.8555 55.6C69.8982 56.0373 69.9462 56.416 69.9995 56.736C70.0528 57.0453 70.0955 57.264 70.1275 57.392L68.8315 57.76C68.7888 57.6213 68.7355 57.3813 68.6715 57.04C68.6075 56.6987 68.5488 56.288 68.4955 55.808C68.4528 55.328 68.4315 54.816 68.4315 54.272C68.4315 53.7493 68.4582 53.2427 68.5115 52.752C68.5648 52.2507 68.6235 51.7973 68.6875 51.392C68.7622 50.9867 68.8315 50.6613 68.8955 50.416C69.1302 50.32 69.5035 50.224 70.0155 50.128C70.5382 50.032 71.1088 49.984 71.7275 49.984C72.6342 49.984 73.3915 50.1173 73.9995 50.384C74.6075 50.6507 75.0608 51.0827 75.3595 51.68C75.6582 52.2773 75.8075 53.0773 75.8075 54.08V58H66.6875ZM66.6875 58C66.6235 58 66.5702 57.9893 66.5275 57.968C66.4848 57.936 66.4528 57.8933 66.4315 57.84C66.4102 57.7867 66.3942 57.7227 66.3835 57.648C66.3728 57.5627 66.3675 57.472 66.3675 57.376C66.3675 57.248 66.3782 57.1413 66.3995 57.056C66.4102 56.9707 66.4422 56.9013 66.4955 56.848C66.5382 56.7947 66.6022 56.768 66.6875 56.768V58Z"
        fill="black" />
    <defs>
        <clipPath id="clip0_15528_29759">
            <rect width="36" height="36" fill="white" transform="translate(21)" />
        </clipPath>
    </defs>
</svg>
    